<?xml version="1.0" encoding="UTF-8" standalone="no"?>
<!-- Created with Inkscape (http://www.inkscape.org/) -->

<svg
   xmlns:dc="http://purl.org/dc/elements/1.1/"
   xmlns:cc="http://creativecommons.org/ns#"
   xmlns:rdf="http://www.w3.org/1999/02/22-rdf-syntax-ns#"
   xmlns:svg="http://www.w3.org/2000/svg"
   xmlns="http://www.w3.org/2000/svg"
   xmlns:sodipodi="http://sodipodi.sourceforge.net/DTD/sodipodi-0.dtd"
   xmlns:inkscape="http://www.inkscape.org/namespaces/inkscape"
   width="1254"
   height="735.43536"
   id="svg3547"
   version="1.1"
   inkscape:version="0.48.2 r9819"
   sodipodi:docname="MTB.svg"
   style="display:inline">
  <defs
     id="defs3549">
    <inkscape:perspective
       sodipodi:type="inkscape:persp3d"
       inkscape:vp_x="0 : 526.18109 : 1"
       inkscape:vp_y="0 : 1000 : 0"
       inkscape:vp_z="744.09448 : 526.18109 : 1"
       inkscape:persp3d-origin="372.04724 : 350.78739 : 1"
       id="perspective3555" />
    <inkscape:perspective
       id="perspective3565"
       inkscape:persp3d-origin="0.5 : 0.33333333 : 1"
       inkscape:vp_z="1 : 0.5 : 1"
       inkscape:vp_y="0 : 1000 : 0"
       inkscape:vp_x="0 : 0.5 : 1"
       sodipodi:type="inkscape:persp3d" />
    <inkscape:perspective
       id="perspective3668"
       inkscape:persp3d-origin="0.5 : 0.33333333 : 1"
       inkscape:vp_z="1 : 0.5 : 1"
       inkscape:vp_y="0 : 1000 : 0"
       inkscape:vp_x="0 : 0.5 : 1"
       sodipodi:type="inkscape:persp3d" />
    <inkscape:perspective
       id="perspective4071"
       inkscape:persp3d-origin="0.5 : 0.33333333 : 1"
       inkscape:vp_z="1 : 0.5 : 1"
       inkscape:vp_y="0 : 1000 : 0"
       inkscape:vp_x="0 : 0.5 : 1"
       sodipodi:type="inkscape:persp3d" />
    <inkscape:perspective
       id="perspective3125"
       inkscape:persp3d-origin="0.5 : 0.33333333 : 1"
       inkscape:vp_z="1 : 0.5 : 1"
       inkscape:vp_y="0 : 1000 : 0"
       inkscape:vp_x="0 : 0.5 : 1"
       sodipodi:type="inkscape:persp3d" />
    <inkscape:perspective
       id="perspective3148"
       inkscape:persp3d-origin="0.5 : 0.33333333 : 1"
       inkscape:vp_z="1 : 0.5 : 1"
       inkscape:vp_y="0 : 1000 : 0"
       inkscape:vp_x="0 : 0.5 : 1"
       sodipodi:type="inkscape:persp3d" />
    <inkscape:perspective
       id="perspective3251"
       inkscape:persp3d-origin="0.5 : 0.33333333 : 1"
       inkscape:vp_z="1 : 0.5 : 1"
       inkscape:vp_y="0 : 1000 : 0"
       inkscape:vp_x="0 : 0.5 : 1"
       sodipodi:type="inkscape:persp3d" />
    <inkscape:perspective
       id="perspective3930"
       inkscape:persp3d-origin="0.5 : 0.33333333 : 1"
       inkscape:vp_z="1 : 0.5 : 1"
       inkscape:vp_y="0 : 1000 : 0"
       inkscape:vp_x="0 : 0.5 : 1"
       sodipodi:type="inkscape:persp3d" />
    <inkscape:perspective
       id="perspective3889"
       inkscape:persp3d-origin="0.5 : 0.33333333 : 1"
       inkscape:vp_z="1 : 0.5 : 1"
       inkscape:vp_y="0 : 1000 : 0"
       inkscape:vp_x="0 : 0.5 : 1"
       sodipodi:type="inkscape:persp3d" />
    <inkscape:perspective
       id="perspective3911"
       inkscape:persp3d-origin="0.5 : 0.33333333 : 1"
       inkscape:vp_z="1 : 0.5 : 1"
       inkscape:vp_y="0 : 1000 : 0"
       inkscape:vp_x="0 : 0.5 : 1"
       sodipodi:type="inkscape:persp3d" />
    <inkscape:perspective
       id="perspective4159"
       inkscape:persp3d-origin="0.5 : 0.33333333 : 1"
       inkscape:vp_z="1 : 0.5 : 1"
       inkscape:vp_y="0 : 1000 : 0"
       inkscape:vp_x="0 : 0.5 : 1"
       sodipodi:type="inkscape:persp3d" />
  </defs>
  <sodipodi:namedview
     id="base"
     pagecolor="#ffffff"
     bordercolor="#666666"
     borderopacity="1.0"
     inkscape:pageopacity="0.0"
     inkscape:pageshadow="2"
     inkscape:zoom="0.57083333"
     inkscape:cx="711.00001"
     inkscape:cy="570.00002"
     inkscape:document-units="px"
     inkscape:current-layer="layer2"
     showgrid="false"
     inkscape:window-width="1248"
     inkscape:window-height="947"
     inkscape:window-x="7"
     inkscape:window-y="24"
     inkscape:window-maximized="0"
     inkscape:snap-object-midpoints="false"
     fit-margin-top="20"
     fit-margin-left="20"
     fit-margin-bottom="20"
     fit-margin-right="20" />
  <metadata
     id="metadata3552">
    <rdf:RDF>
      <cc:Work
         rdf:about="">
        <dc:format>image/svg+xml</dc:format>
        <dc:type
           rdf:resource="http://purl.org/dc/dcmitype/StillImage" />
        <dc:title></dc:title>
      </cc:Work>
    </rdf:RDF>
  </metadata>
  <g
     inkscape:groupmode="layer"
     id="layer2"
     inkscape:label="MTB"
     style="display:inline"
     transform="translate(11.000006,-434.56464)">
    <g
       transform="matrix(0.62723957,0.77882637,-0.77882637,0.62723957,940.00219,-60.227602)"
       inkscape:transform-center-y="0.018540334"
       inkscape:transform-center-x="37.028246"
       id="g3941">
      <path
         style="fill:#cccccc;fill-opacity:1;stroke:#666666;stroke-width:2;stroke-linecap:round;stroke-linejoin:round;stroke-miterlimit:4;stroke-opacity:1;stroke-dasharray:none"
         d="m 538.36623,932.18201 13.13868,10.07299 c 0,0 -15.88428,31.6731 -26.71532,45.54744 -12.95892,16.60016 -30.85863,28.72846 -45.10949,44.23366 -7.43737,8.092 -21.0219,25.4014 -21.0219,25.4014 0,0 -8.71312,7.1869 -14.89051,2.1898 -6.17739,-4.9972 -0.43796,-14.8905 -0.43796,-14.8905 0,0 14.26915,-15.6219 20.58395,-24.0876 12.68645,-17.0078 20.73341,-37.36931 34.59854,-53.4307 11.55855,-13.38945 39.85401,-35.03649 39.85401,-35.03649 z"
         id="path3951"
         sodipodi:nodetypes="ccaaczcaac"
         inkscape:connector-curvature="0" />
      <path
         sodipodi:type="arc"
         style="fill:#333333;fill-opacity:1;stroke:#666666;stroke-width:2;stroke-linecap:round;stroke-linejoin:round;stroke-miterlimit:4;stroke-opacity:1;stroke-dasharray:none"
         id="path3953"
         sodipodi:cx="533.86859"
         sodipodi:cy="952.11676"
         sodipodi:rx="7.4452553"
         sodipodi:ry="7.4452553"
         d="m 541.31385,952.11676 c 0,4.1119 -3.33336,7.44526 -7.44526,7.44526 -4.1119,0 -7.44525,-3.33336 -7.44525,-7.44526 0,-4.1119 3.33335,-7.44526 7.44525,-7.44526 4.1119,0 7.44526,3.33336 7.44526,7.44526 z"
         transform="matrix(1.0656871,0,0,1.0656871,-35.907937,-62.882809)" />
      <path
         sodipodi:type="arc"
         style="fill:#333333;fill-opacity:1;stroke:#666666;stroke-width:2;stroke-linecap:round;stroke-linejoin:round;stroke-miterlimit:4;stroke-opacity:1;stroke-dasharray:none"
         id="path3955"
         sodipodi:cx="451.31387"
         sodipodi:cy="1053.2847"
         sodipodi:rx="4.160584"
         sodipodi:ry="4.3795619"
         d="m 455.47446,1053.2847 c 0,2.4187 -1.86276,4.3795 -4.16059,4.3795 -2.29782,0 -4.16058,-1.9608 -4.16058,-4.3795 0,-2.4188 1.86276,-4.3796 4.16058,-4.3796 2.29783,0 4.16059,1.9608 4.16059,4.3796 z"
         transform="translate(-1.3138686,-0.4379562)" />
    </g>
    <g
       id="g4707"
       transform="translate(-16,0)">
      <path
         transform="matrix(1.040827,0,0,1.040827,230.61063,192.16991)"
         d="m 147.99589,863.30936 c -2.24977,1.70848 -10.94822,-6.47615 -13.26334,-4.85731 -2.31512,1.61883 2.38669,12.59809 0.01,14.12478 -2.37689,1.5267 -10.40637,-7.31517 -12.84136,-5.88297 -2.43499,1.4322 1.3909,12.74651 -1.09844,14.08201 -2.48935,1.3355 -9.80034,-8.10909 -12.3402,-6.87235 -2.53985,1.23674 0.38653,12.81635 -2.19992,13.95242 -2.58645,1.13607 -9.133894,-8.85303 -11.762954,-7.81938 -2.629059,1.03366 -0.620219,12.80717 -3.287833,13.73681 -2.667613,0.92964 -8.411139,-9.54237 -11.113193,-8.71818 -2.702054,0.82419 -1.623147,12.71903 -4.355475,13.4365 -2.732329,0.71748 -7.636525,-10.17289 -10.394915,-9.56324 -2.75839,0.60966 -2.616066,12.55247 -5.396264,13.05336 -2.780198,0.50089 -6.814828,-10.74068 -9.612548,-10.34933 -2.797719,0.39135 -3.592857,12.30852 -6.403784,12.58973 -2.810927,0.28121 -5.951116,-11.24226 -8.770916,-11.07162 -2.8198,0.17063 -4.547497,11.98868 -7.371822,12.04848 -2.824325,0.0598 -5.050713,-11.67452 -7.875209,-11.72565 -2.824495,-0.0511 -5.474099,11.59493 -8.29441,11.43296 -2.8203108,-0.16198 -4.1191712,-12.03481 -6.9309485,-12.30739 -2.8117771,-0.27257 -6.3669527,11.1297 -9.1658608,10.74694 -2.7989082,-0.38275 -3.1622331,-12.32089 -5.9439567,-12.81324 -2.781723,-0.49234 -7.220551,10.59585 -9.980801,9.99467 -2.760249,-0.60118 -2.185798,-12.53102 -4.920318,-13.2401 -2.734519,-0.70908 -8.029633,9.99666 -10.734205,9.18077 -2.704573,-0.81589 -1.195889,-12.66388 -3.866344,-13.58532 -2.670456,-0.92145 -8.78921,9.33584 -11.421431,8.31027 -2.632222,-1.02557 -0.198605,-12.71868 -2.788533,-13.8468 -2.589928,-1.12812 -9.494598,8.61747 -12.038239,7.38854 -2.543642,-1.22893 0.799903,-12.69505 -1.69353,-14.0229 -2.493432,-1.32785 -10.141448,7.84597 -12.580827,6.42126 -2.439379,-1.42472 1.79348,-12.59316 -0.588085,-14.11255 -2.381564,-1.51938 -10.725773,7.0261 -13.04585,5.41438 -2.320078,-1.61171 2.775998,-12.41362 0.520985,-14.11518 -2.255013,-1.70156 -11.243973,6.16291 -13.430443,4.37413 -2.18647,-1.78878 3.7414,-12.15755 1.62684,-14.0308 -2.11455,-1.87324 -11.69284,5.26172 -13.73223,3.3069 -2.03938,-1.95481 4.68374,-11.82652 2.72268,-13.85989 -1.96107,-2.03338 -12.06963,4.32808 -13.94936,2.21928 -1.87972,-2.10879 5.5972,-11.42259 3.80172,-13.60355 -1.79549,-2.18097 -12.372,3.36777 -14.08048,1.11799 -1.70848,-2.24978 6.47615,-10.94823 4.85732,-13.26334 -1.61884,-2.31512 -12.5981,2.38669 -14.12479,0.01 -1.5267,-2.37688 7.31517,-10.40636 5.88297,-12.84135 -1.4322,-2.43499 -12.74651,1.3909 -14.08201,-1.09845 -1.3355,-2.48934 8.10909,-9.80034 6.87235,-12.34019 -1.23673,-2.53986 -12.81635,0.38653 -13.95242,-2.19992 -1.13607,-2.58645 8.85303,-9.1339 7.81938,-11.76296 -1.03365,-2.62906 -12.80717,-0.62022 -13.73681,-3.28783 -0.92964,-2.66761 9.54237,-8.41114 8.71818,-11.11319 -0.82419,-2.70206 -12.71903,-1.62315 -13.4365,-4.35548 -0.71748,-2.73233 10.17289,-7.63652 9.56324,-10.39491 -0.60965,-2.75839 -12.55247,-2.61607 -13.05336,-5.39627 -0.50089,-2.7802 10.74068,-6.81483 10.34933,-9.61255 -0.39135,-2.79771 -12.30851,-3.59285 -12.58973,-6.40378 -0.28121,-2.81093 11.24226,-5.95112 11.07162,-8.77092 -0.17063,-2.8198 -11.98868,-4.54749 -12.04848,-7.37182 -0.0598,-2.82432 11.67452,-5.05071 11.72565,-7.87521 0.0511,-2.82449 -11.59493,-5.4741 -11.43296,-8.29441 0.16198,-2.82031 12.03481,-4.11917 12.30739,-6.93094 0.27257,-2.81178 -11.1297,-6.36696 -10.74694,-9.16587 0.38275,-2.7989 12.32089,-3.16223 12.81324,-5.94395 0.49234,-2.78173 -10.59585,-7.22055 -9.99467,-9.9808 0.60118,-2.76025 12.53102,-2.1858 13.2401,-4.92032 0.70908,-2.73452 -9.99666,-8.02963 -9.18077,-10.73421 0.81589,-2.70457 12.66388,-1.19589 13.58533,-3.86634 0.92144,-2.67046 -9.33585,-8.78921 -8.31028,-11.42143 1.02558,-2.63222 12.71868,-0.19861 13.8468,-2.78853 1.12812,-2.58993 -8.61747,-9.4946 -7.38854,-12.03824 1.22893,-2.54364 12.69505,0.7999 14.0229,-1.69353 1.32785,-2.49344 -7.84597,-10.14145 -6.42126,-12.58083 1.42472,-2.43938 12.59316,1.79348 14.11255,-0.58809 1.51939,-2.38156 -7.0261,-10.72577 -5.41438,-13.04585 1.61171,-2.32007 12.41362,2.776 14.11518,0.52099 1.70156,-2.25501 -6.16291,-11.24397 -4.37413,-13.43044 1.78878,-2.18647 12.15756,3.7414 14.0308,1.62684 1.87324,-2.11456 -5.26172,-11.69284 -3.3069,-13.73223 1.95481,-2.03938 11.82652,4.68374 13.8599,2.72267 2.03337,-1.96106 -4.32809,-12.06963 -2.21929,-13.94935 2.10879,-1.87973 11.42259,5.5972 13.60355,3.80171 2.180971,-1.79548 -3.36777,-12.372 -1.11799,-14.08047 2.249779,-1.70848 10.948226,6.47615 13.263343,4.85731 2.315116,-1.61883 -2.386691,-12.59809 -0.0098,-14.12479 2.376887,-1.52669 10.406361,7.31518 12.841353,5.88298 2.434992,-1.4322 -1.390898,-12.74652 1.098445,-14.08202 2.489343,-1.3355 9.80034,8.1091 12.340195,6.87236 2.539855,-1.23674 -0.386531,-12.81635 2.19992,-13.95242 2.586451,-1.13607 9.133896,8.85303 11.762956,7.81937 2.629059,-1.03365 0.62022,-12.80716 3.287833,-13.7368 2.667613,-0.92964 8.411139,9.54237 11.113193,8.71818 2.702054,-0.8242 1.623147,-12.71903 4.355475,-13.4365 2.732329,-0.71748 7.636525,10.17288 10.394915,9.56323 2.75839,-0.60965 2.616066,-12.55246 5.396264,-13.05335 2.780198,-0.50089 6.8148283,10.74068 9.6125478,10.34933 2.79771936,-0.39135 3.59285722,-12.30852 6.403784,-12.58973 2.8109269,-0.28121 5.9511159,11.24226 8.7709162,11.07162 2.8198,-0.17064 4.547497,-11.98868 7.371822,-12.04848 2.824325,-0.0598 5.050713,11.67452 7.875209,11.72565 2.824495,0.0511 5.474099,-11.59494 8.29441,-11.43296 2.820311,0.16198 4.119171,12.03481 6.930949,12.30738 2.811777,0.27258 6.366952,-11.12969 9.16586,-10.74694 2.798909,0.38276 3.162234,12.3209 5.943957,12.81324 2.781723,0.49235 7.220551,-10.59584 9.980801,-9.99466 2.760249,0.60117 2.185798,12.53102 4.920318,13.2401 2.734519,0.70908 8.029633,-9.99667 10.734205,-9.18078 2.704573,0.81589 1.195889,12.66389 3.866345,13.58533 2.670455,0.92144 8.789209,-9.33584 11.42143,-8.31027 2.632218,1.02557 0.198605,12.71867 2.788538,13.8468 2.58992,1.12812 9.49459,-8.61748 12.03823,-7.38854 2.54365,1.22893 -0.7999,12.69505 1.69353,14.0229 2.49344,1.32784 10.14145,-7.84598 12.58083,-6.42126 2.43938,1.42472 -1.79348,12.59316 0.58809,14.11254 2.38156,1.51939 10.72577,-7.02609 13.04585,-5.41438 2.32007,1.61172 -2.776,12.41362 -0.52099,14.11518 2.25501,1.70156 11.24397,-6.1629 13.43044,-4.37412 2.18647,1.78878 -3.7414,12.15755 -1.62684,14.03079 2.11456,1.87324 11.69284,-5.26171 13.73223,-3.3069 2.03939,1.95482 -4.68374,11.82653 -2.72267,13.8599 1.96107,2.03337 12.06963,-4.32808 13.94935,-2.21928 1.87973,2.10879 -5.5972,11.42258 -3.80171,13.60355 1.79548,2.18097 12.372,-3.36777 14.08048,-1.11799 1.70847,2.24978 -6.47616,10.94822 -4.85732,13.26334 1.61883,2.31512 12.59809,-2.38669 14.12479,-0.01 1.52669,2.37688 -7.31518,10.40636 -5.88298,12.84135 1.4322,2.43499 12.74652,-1.3909 14.08202,1.09844 1.3355,2.48935 -8.1091,9.80034 -6.87236,12.3402 1.23674,2.53985 12.81635,-0.38653 13.95242,2.19992 1.13607,2.58645 -8.85303,9.1339 -7.81937,11.76295 1.03365,2.62906 12.80717,0.62022 13.7368,3.28784 0.92964,2.66761 -9.54237,8.41114 -8.71818,11.11319 0.8242,2.70205 12.71903,1.62315 13.4365,4.35548 0.71748,2.73232 -10.17288,7.63652 -9.56323,10.39491 0.60965,2.75839 12.55247,2.61607 13.05335,5.39626 0.50089,2.7802 -10.74068,6.81483 -10.34933,9.61255 0.39135,2.79772 12.30852,3.59286 12.58973,6.40379 0.28121,2.81092 -11.24226,5.95111 -11.07162,8.77091 0.17064,2.8198 11.98868,4.5475 12.04848,7.37182 0.0598,2.82433 -11.67452,5.05072 -11.72564,7.87521 -0.0511,2.8245 11.59493,5.4741 11.43295,8.29441 -0.16198,2.82031 -12.03481,4.11917 -12.30738,6.93095 -0.27258,2.81178 11.12969,6.36695 10.74694,9.16586 -0.38276,2.79891 -12.3209,3.16224 -12.81324,5.94396 -0.49235,2.78172 10.59584,7.22055 9.99466,9.9808 -0.60117,2.76025 -12.53102,2.1858 -13.2401,4.92032 -0.70907,2.73452 9.99667,8.02963 9.18078,10.7342 -0.81589,2.70458 -12.66389,1.19589 -13.58533,3.86635 -0.92144,2.67045 9.33585,8.78921 8.31027,11.42143 -1.02557,2.63222 -12.71867,0.1986 -13.8468,2.78853 -1.12812,2.58993 8.61748,9.4946 7.38854,12.03824 -1.22893,2.54364 -12.69505,-0.7999 -14.02289,1.69353 -1.32785,2.49343 7.84597,10.14145 6.42125,12.58083 -1.42472,2.43938 -12.59316,-1.79348 -14.11254,0.58808 -1.51939,2.38157 7.02609,10.72578 5.41438,13.04585 -1.61172,2.32008 -12.41362,-2.776 -14.11518,-0.52098 -1.70156,2.25501 6.1629,11.24397 4.37412,13.43044 -1.78878,2.18647 -12.15755,-3.7414 -14.03079,-1.62684 -1.87324,2.11456 5.26171,11.69284 3.3069,13.73223 -1.95482,2.03938 -11.82653,-4.68374 -13.8599,-2.72268 -2.03337,1.96107 4.32808,12.06963 2.21929,13.94936 -2.1088,1.87973 -11.42259,-5.5972 -13.60356,-3.80171 -2.18097,1.79548 3.36777,12.37199 1.11799,14.08047 z"
         inkscape:randomized="0"
         inkscape:rounded="0.2"
         inkscape:flatsided="false"
         sodipodi:arg2="0.96057718"
         sodipodi:arg1="0.92130727"
         sodipodi:r2="194.22466"
         sodipodi:r1="205.96465"
         sodipodi:cy="699.28058"
         sodipodi:cx="23.432682"
         sodipodi:sides="80"
         id="path4451"
         style="fill:#000000;fill-opacity:0;stroke:#333333;stroke-width:30.1188221;stroke-linecap:round;stroke-linejoin:round;stroke-miterlimit:4;stroke-opacity:1;stroke-dasharray:none"
         sodipodi:type="star" />
      <path
         transform="matrix(0.94145377,0,0,0.98628486,20.614555,3.6707093)"
         d="m 445.85205,929.07166 c 0,103.79714 -88.15104,187.94124 -196.89087,187.94124 -108.73982,0 -196.890868,-84.1441 -196.890868,-187.94124 0,-103.79711 88.151048,-187.94129 196.890868,-187.94129 108.73983,0 196.89087,84.14418 196.89087,187.94129 z"
         sodipodi:ry="187.94128"
         sodipodi:rx="196.89087"
         sodipodi:cy="929.07166"
         sodipodi:cx="248.96118"
         id="path4453"
         style="fill:#000000;fill-opacity:0;stroke:#b3b3b3;stroke-width:14.81171703;stroke-linecap:round;stroke-linejoin:round;stroke-miterlimit:4;stroke-opacity:1;stroke-dasharray:none"
         sodipodi:type="arc" />
      <g
         transform="translate(1.6603266,0.3466468)"
         id="g4575">
        <path
           style="fill:#000000;fill-opacity:1;stroke:#000000;stroke-width:2;stroke-linecap:round;stroke-linejoin:round;stroke-miterlimit:4;stroke-opacity:1;stroke-dasharray:none"
           d="M 254.33967,912.6703 433.43866,901.38847"
           id="path4471"
           sodipodi:nodetypes="cc"
           inkscape:transform-center-x="-90.549495"
           inkscape:transform-center-y="-12.624007"
           inkscape:connector-curvature="0" />
        <path
           inkscape:transform-center-y="-42.832437"
           inkscape:transform-center-x="-80.771025"
           sodipodi:nodetypes="cc"
           id="path4505"
           d="M 251.891,912.74941 416.33039,840.8925"
           style="fill:#000000;fill-opacity:1;stroke:#000000;stroke-width:2;stroke-linecap:round;stroke-linejoin:round;stroke-miterlimit:4;stroke-opacity:1;stroke-dasharray:none"
           inkscape:connector-curvature="0" />
        <path
           style="fill:#000000;fill-opacity:1;stroke:#000000;stroke-width:2;stroke-linecap:round;stroke-linejoin:round;stroke-miterlimit:4;stroke-opacity:1;stroke-dasharray:none"
           d="m 249.61706,913.66125 129.94598,-123.765"
           id="path4507"
           sodipodi:nodetypes="cc"
           inkscape:transform-center-x="-61.25038"
           inkscape:transform-center-y="-67.874642"
           inkscape:connector-curvature="0" />
        <path
           inkscape:transform-center-y="-84.730162"
           inkscape:transform-center-x="-34.342035"
           sodipodi:nodetypes="cc"
           id="path4509"
           d="m 247.79213,915.29583 79.77915,-160.7452"
           style="fill:#000000;fill-opacity:1;stroke:#000000;stroke-width:2;stroke-linecap:round;stroke-linejoin:round;stroke-miterlimit:4;stroke-opacity:1;stroke-dasharray:none"
           inkscape:connector-curvature="0" />
        <path
           style="fill:#000000;fill-opacity:1;stroke:#000000;stroke-width:2;stroke-linecap:round;stroke-linejoin:round;stroke-miterlimit:4;stroke-opacity:1;stroke-dasharray:none"
           d="M 246.63631,917.45599 266.6261,739.11884"
           id="path4511"
           sodipodi:nodetypes="cc"
           inkscape:transform-center-x="-3.291535"
           inkscape:transform-center-y="-91.365977"
           inkscape:connector-curvature="0" />
        <path
           inkscape:transform-center-y="-86.981707"
           inkscape:transform-center-x="28.15597"
           sodipodi:nodetypes="cc"
           id="path4513"
           d="M 246.28902,919.88119 204.07838,745.46218"
           style="fill:#000000;fill-opacity:1;stroke:#000000;stroke-width:2;stroke-linecap:round;stroke-linejoin:round;stroke-miterlimit:4;stroke-opacity:1;stroke-dasharray:none"
           inkscape:connector-curvature="0" />
        <path
           style="fill:#000000;fill-opacity:1;stroke:#000000;stroke-width:2;stroke-linecap:round;stroke-linejoin:round;stroke-miterlimit:4;stroke-opacity:1;stroke-dasharray:none"
           d="M 246.79214,922.27892 147.4723,772.81555"
           id="path4515"
           sodipodi:nodetypes="cc"
           inkscape:transform-center-x="56.20745"
           inkscape:transform-center-y="-72.106157"
           inkscape:connector-curvature="0" />
        <path
           inkscape:transform-center-y="-48.533542"
           inkscape:transform-center-x="77.479485"
           sodipodi:nodetypes="cc"
           id="path4517"
           d="M 248.08499,924.35997 103.63538,817.87973"
           style="fill:#000000;fill-opacity:1;stroke:#000000;stroke-width:2;stroke-linecap:round;stroke-linejoin:round;stroke-miterlimit:4;stroke-opacity:1;stroke-dasharray:none"
           inkscape:connector-curvature="0" />
        <path
           style="fill:#000000;fill-opacity:1;stroke:#000000;stroke-width:2;stroke-linecap:round;stroke-linejoin:round;stroke-miterlimit:4;stroke-opacity:1;stroke-dasharray:none"
           d="M 250.01163,925.87334 77.855011,875.21932"
           id="path4519"
           sodipodi:nodetypes="cc"
           inkscape:transform-center-x="89.40635"
           inkscape:transform-center-y="-19.107062"
           inkscape:connector-curvature="0" />
        <path
           inkscape:transform-center-y="12.624008"
           inkscape:transform-center-x="90.549489"
           sodipodi:nodetypes="cc"
           id="path4521"
           d="M 252.33968,926.63649 73.240683,937.91831"
           style="fill:#000000;fill-opacity:1;stroke:#000000;stroke-width:2;stroke-linecap:round;stroke-linejoin:round;stroke-miterlimit:4;stroke-opacity:1;stroke-dasharray:none"
           inkscape:connector-curvature="0" />
        <path
           style="fill:#000000;fill-opacity:1;stroke:#000000;stroke-width:2;stroke-linecap:round;stroke-linejoin:round;stroke-miterlimit:4;stroke-opacity:1;stroke-dasharray:none"
           d="M 254.78835,926.55737 90.348951,998.41428"
           id="path4523"
           sodipodi:nodetypes="cc"
           inkscape:transform-center-x="80.77102"
           inkscape:transform-center-y="42.832433"
           inkscape:connector-curvature="0" />
        <path
           inkscape:transform-center-y="67.874623"
           inkscape:transform-center-x="61.250381"
           sodipodi:nodetypes="cc"
           id="path4525"
           d="M 257.06228,925.64553 127.1163,1049.4105"
           style="fill:#000000;fill-opacity:1;stroke:#000000;stroke-width:2;stroke-linecap:round;stroke-linejoin:round;stroke-miterlimit:4;stroke-opacity:1;stroke-dasharray:none"
           inkscape:connector-curvature="0" />
        <path
           style="fill:#000000;fill-opacity:1;stroke:#000000;stroke-width:2;stroke-linecap:round;stroke-linejoin:round;stroke-miterlimit:4;stroke-opacity:1;stroke-dasharray:none"
           d="M 258.88721,924.01095 179.10805,1084.7561"
           id="path4527"
           sodipodi:nodetypes="cc"
           inkscape:transform-center-x="34.342041"
           inkscape:transform-center-y="84.730133"
           inkscape:connector-curvature="0" />
        <path
           inkscape:transform-center-y="91.365953"
           inkscape:transform-center-x="3.291546"
           sodipodi:nodetypes="cc"
           id="path4529"
           d="M 260.04303,921.85079 240.05322,1100.1879"
           style="fill:#000000;fill-opacity:1;stroke:#000000;stroke-width:2;stroke-linecap:round;stroke-linejoin:round;stroke-miterlimit:4;stroke-opacity:1;stroke-dasharray:none"
           inkscape:connector-curvature="0" />
        <path
           style="fill:#000000;fill-opacity:1;stroke:#000000;stroke-width:2;stroke-linecap:round;stroke-linejoin:round;stroke-miterlimit:4;stroke-opacity:1;stroke-dasharray:none"
           d="m 260.39032,919.42559 42.21061,174.41901"
           id="path4531"
           sodipodi:nodetypes="cc"
           inkscape:transform-center-x="-28.155954"
           inkscape:transform-center-y="86.981703"
           inkscape:connector-curvature="0" />
        <path
           inkscape:transform-center-y="72.106138"
           inkscape:transform-center-x="-56.207434"
           sodipodi:nodetypes="cc"
           id="path4533"
           d="m 259.8872,917.02786 99.31981,149.46334"
           style="fill:#000000;fill-opacity:1;stroke:#000000;stroke-width:2;stroke-linecap:round;stroke-linejoin:round;stroke-miterlimit:4;stroke-opacity:1;stroke-dasharray:none"
           inkscape:connector-curvature="0" />
        <path
           style="fill:#000000;fill-opacity:1;stroke:#000000;stroke-width:2;stroke-linecap:round;stroke-linejoin:round;stroke-miterlimit:4;stroke-opacity:1;stroke-dasharray:none"
           d="M 258.59435,914.94681 403.04392,1021.427"
           id="path4535"
           sodipodi:nodetypes="cc"
           inkscape:transform-center-x="-77.479464"
           inkscape:transform-center-y="48.533513"
           inkscape:connector-curvature="0" />
        <path
           inkscape:transform-center-y="19.107048"
           inkscape:transform-center-x="-89.406319"
           sodipodi:nodetypes="cc"
           id="path4537"
           d="m 256.66771,913.43345 172.15656,50.65398"
           style="fill:#000000;fill-opacity:1;stroke:#000000;stroke-width:2;stroke-linecap:round;stroke-linejoin:round;stroke-miterlimit:4;stroke-opacity:1;stroke-dasharray:none"
           inkscape:connector-curvature="0" />
        <path
           style="fill:#000000;fill-opacity:1;stroke:#000000;stroke-width:2;stroke-linecap:round;stroke-linejoin:round;stroke-miterlimit:4;stroke-opacity:1;stroke-dasharray:none"
           d="M 249.83754,913.52978 79.17802,969.01884"
           id="path4539"
           sodipodi:nodetypes="cc"
           inkscape:transform-center-x="88.831891"
           inkscape:transform-center-y="21.620918"
           inkscape:connector-curvature="0" />
        <path
           inkscape:transform-center-y="50.699298"
           inkscape:transform-center-x="76.079881"
           sodipodi:nodetypes="cc"
           id="path4541"
           d="M 247.95435,915.09688 106.56523,1025.6085"
           style="fill:#000000;fill-opacity:1;stroke:#000000;stroke-width:2;stroke-linecap:round;stroke-linejoin:round;stroke-miterlimit:4;stroke-opacity:1;stroke-dasharray:none"
           inkscape:connector-curvature="0" />
        <path
           style="fill:#000000;fill-opacity:1;stroke:#000000;stroke-width:2;stroke-linecap:round;stroke-linejoin:round;stroke-miterlimit:4;stroke-opacity:1;stroke-dasharray:none"
           d="M 246.72071,917.21356 151.65559,1069.4184"
           id="path4543"
           sodipodi:nodetypes="cc"
           inkscape:transform-center-x="54.151521"
           inkscape:transform-center-y="73.662588"
           inkscape:connector-curvature="0" />
        <path
           inkscape:transform-center-y="87.741118"
           inkscape:transform-center-x="25.691696"
           sodipodi:nodetypes="cc"
           id="path4545"
           d="M 246.28541,919.62452 209.01054,1095.1645"
           style="fill:#000000;fill-opacity:1;stroke:#000000;stroke-width:2;stroke-linecap:round;stroke-linejoin:round;stroke-miterlimit:4;stroke-opacity:1;stroke-dasharray:none"
           inkscape:connector-curvature="0" />
        <path
           style="fill:#000000;fill-opacity:1;stroke:#000000;stroke-width:2;stroke-linecap:round;stroke-linejoin:round;stroke-miterlimit:4;stroke-opacity:1;stroke-dasharray:none"
           d="m 246.70096,922.03896 25.01129,177.70234"
           id="path4547"
           sodipodi:nodetypes="cc"
           inkscape:transform-center-x="-5.866934"
           inkscape:transform-center-y="91.236738"
           inkscape:connector-curvature="0" />
        <path
           inkscape:transform-center-y="83.727893"
           inkscape:transform-center-x="-36.717919"
           sodipodi:nodetypes="cc"
           id="path4549"
           d="m 247.91724,924.16567 84.2807,158.43123"
           style="fill:#000000;fill-opacity:1;stroke:#000000;stroke-width:2;stroke-linecap:round;stroke-linejoin:round;stroke-miterlimit:4;stroke-opacity:1;stroke-dasharray:none"
           inkscape:connector-curvature="0" />
        <path
           style="fill:#000000;fill-opacity:1;stroke:#000000;stroke-width:2;stroke-linecap:round;stroke-linejoin:round;stroke-miterlimit:4;stroke-opacity:1;stroke-dasharray:none"
           d="M 249.78754,925.74813 383.17217,1045.7991"
           id="path4551"
           sodipodi:nodetypes="cc"
           inkscape:transform-center-x="-63.140184"
           inkscape:transform-center-y="66.120223"
           inkscape:connector-curvature="0" />
        <path
           inkscape:transform-center-y="40.537468"
           inkscape:transform-center-x="-81.946814"
           sodipodi:nodetypes="cc"
           id="path4553"
           d="m 252.08628,926.59547 166.40041,67.19078"
           style="fill:#000000;fill-opacity:1;stroke:#000000;stroke-width:2;stroke-linecap:round;stroke-linejoin:round;stroke-miterlimit:4;stroke-opacity:1;stroke-dasharray:none"
           inkscape:connector-curvature="0" />
        <path
           style="fill:#000000;fill-opacity:1;stroke:#000000;stroke-width:2;stroke-linecap:round;stroke-linejoin:round;stroke-miterlimit:4;stroke-opacity:1;stroke-dasharray:none"
           d="m 254.5362,926.6055 179.34584,6.22638"
           id="path4555"
           sodipodi:nodetypes="cc"
           inkscape:transform-center-x="-90.869449"
           inkscape:transform-center-y="10.065298"
           inkscape:connector-curvature="0" />
        <path
           inkscape:transform-center-y="-21.620897"
           inkscape:transform-center-x="-88.831884"
           sodipodi:nodetypes="cc"
           id="path4557"
           d="M 256.8418,925.777 427.50131,870.28799"
           style="fill:#000000;fill-opacity:1;stroke:#000000;stroke-width:2;stroke-linecap:round;stroke-linejoin:round;stroke-miterlimit:4;stroke-opacity:1;stroke-dasharray:none"
           inkscape:connector-curvature="0" />
        <path
           style="fill:#000000;fill-opacity:1;stroke:#000000;stroke-width:2;stroke-linecap:round;stroke-linejoin:round;stroke-miterlimit:4;stroke-opacity:1;stroke-dasharray:none"
           d="M 258.72499,924.2099 400.11412,813.6983"
           id="path4559"
           sodipodi:nodetypes="cc"
           inkscape:transform-center-x="-76.079884"
           inkscape:transform-center-y="-50.699292"
           inkscape:connector-curvature="0" />
        <path
           inkscape:transform-center-y="-73.662602"
           inkscape:transform-center-x="-54.151524"
           sodipodi:nodetypes="cc"
           id="path4561"
           d="M 259.95863,922.09322 355.02376,769.88836"
           style="fill:#000000;fill-opacity:1;stroke:#000000;stroke-width:2;stroke-linecap:round;stroke-linejoin:round;stroke-miterlimit:4;stroke-opacity:1;stroke-dasharray:none"
           inkscape:connector-curvature="0" />
        <path
           style="fill:#000000;fill-opacity:1;stroke:#000000;stroke-width:2;stroke-linecap:round;stroke-linejoin:round;stroke-miterlimit:4;stroke-opacity:1;stroke-dasharray:none"
           d="M 260.39393,919.68226 297.6688,744.14229"
           id="path4563"
           sodipodi:nodetypes="cc"
           inkscape:transform-center-x="-25.691694"
           inkscape:transform-center-y="-87.741117"
           inkscape:connector-curvature="0" />
        <path
           inkscape:transform-center-y="-91.236757"
           inkscape:transform-center-x="5.866936"
           sodipodi:nodetypes="cc"
           id="path4565"
           d="M 259.97838,917.26782 234.96709,739.56545"
           style="fill:#000000;fill-opacity:1;stroke:#000000;stroke-width:2;stroke-linecap:round;stroke-linejoin:round;stroke-miterlimit:4;stroke-opacity:1;stroke-dasharray:none"
           inkscape:connector-curvature="0" />
        <path
           style="fill:#000000;fill-opacity:1;stroke:#000000;stroke-width:2;stroke-linecap:round;stroke-linejoin:round;stroke-miterlimit:4;stroke-opacity:1;stroke-dasharray:none"
           d="M 258.7621,915.14112 174.48139,756.70987"
           id="path4567"
           sodipodi:nodetypes="cc"
           inkscape:transform-center-x="36.717926"
           inkscape:transform-center-y="-83.727897"
           inkscape:connector-curvature="0" />
        <path
           inkscape:transform-center-y="-66.120217"
           inkscape:transform-center-x="63.140191"
           sodipodi:nodetypes="cc"
           id="path4569"
           d="M 256.8918,913.55866 123.50716,793.50769"
           style="fill:#000000;fill-opacity:1;stroke:#000000;stroke-width:2;stroke-linecap:round;stroke-linejoin:round;stroke-miterlimit:4;stroke-opacity:1;stroke-dasharray:none"
           inkscape:connector-curvature="0" />
        <path
           style="fill:#000000;fill-opacity:1;stroke:#000000;stroke-width:2;stroke-linecap:round;stroke-linejoin:round;stroke-miterlimit:4;stroke-opacity:1;stroke-dasharray:none"
           d="M 254.59306,912.71132 88.192647,845.52054"
           id="path4571"
           sodipodi:nodetypes="cc"
           inkscape:transform-center-x="81.946818"
           inkscape:transform-center-y="-40.537462"
           inkscape:connector-curvature="0" />
        <path
           inkscape:transform-center-y="-10.065292"
           inkscape:transform-center-x="90.86945"
           sodipodi:nodetypes="cc"
           id="path4573"
           d="M 252.14314,912.70129 72.797303,906.47491"
           style="fill:#000000;fill-opacity:1;stroke:#000000;stroke-width:2;stroke-linecap:round;stroke-linejoin:round;stroke-miterlimit:4;stroke-opacity:1;stroke-dasharray:none"
           inkscape:connector-curvature="0" />
      </g>
      <path
         transform="matrix(0.83040817,0,0,0.83040817,88.70876,186.99983)"
         d="m 237.8773,912.5391 -0.10441,6.4472 -6.44012,0.31967 -1.36019,6.30296 -6.37874,-0.94288 -2.5637,5.91649 -6.07223,-2.16919 -3.66869,5.30265 -5.53236,-3.31215 -4.6327,4.48504 -4.77989,-4.32781 -5.41866,3.49506 -3.84374,-5.17717 -5.9964,2.37078 -2.75986,-5.82756 -6.34369,1.15538 -1.56994,-6.25401 -6.4472,-0.10441 -0.31967,-6.44012 -6.30296,-1.36019 0.94288,-6.37874 -5.91649,-2.5637 2.16919,-6.07223 -5.30265,-3.66869 3.31215,-5.53237 -4.48504,-4.63269 4.32781,-4.77989 -3.49506,-5.41866 5.17717,-3.84374 -2.37078,-5.9964 5.82756,-2.75986 -1.15538,-6.3437 6.25401,-1.56993 0.10441,-6.44721 6.44012,-0.31967 1.36019,-6.30295 6.37874,0.94288 2.5637,-5.91649 6.07223,2.16919 3.66869,-5.30265 5.53237,3.31215 4.63269,-4.48504 4.77989,4.32781 5.41866,-3.49506 3.84374,5.17717 5.9964,-2.37078 2.75986,5.82756 6.3437,-1.15538 1.56993,6.25401 6.44721,0.10441 0.31967,6.44012 6.30295,1.36019 -0.94288,6.37874 5.91649,2.5637 -2.16919,6.07223 5.30265,3.66869 -3.31215,5.53237 4.48504,4.63269 -4.32781,4.77989 3.49506,5.41866 -5.17717,3.84374 2.37078,5.9964 -5.82756,2.75986 1.15538,6.34369 z"
         inkscape:randomized="0"
         inkscape:rounded="0"
         inkscape:flatsided="false"
         sodipodi:arg2="0.76869633"
         sodipodi:arg1="0.67052156"
         sodipodi:r2="52.197498"
         sodipodi:r1="48.021698"
         sodipodi:cy="882.69867"
         sodipodi:cx="200.25241"
         sodipodi:sides="32"
         id="path4455"
         style="fill:#cccccc;fill-opacity:1;stroke:#666666;stroke-width:4.0004425;stroke-linecap:round;stroke-linejoin:round;stroke-miterlimit:4;stroke-opacity:1;stroke-dasharray:none"
         sodipodi:type="star" />
      <path
         transform="matrix(1.2527925,0,0,1.2527925,-190.21798,271.62659)"
         d="m 368.06959,542.83363 -3.80548,-0.83305 -2.39062,3.07581 -3.51078,-1.6882 -3.03551,2.44159 -3.02683,-2.45235 -3.51675,1.67575 -2.37969,-3.08428 -3.80841,0.81955 -1.60426,-3.54993 -3.89476,-0.0808 -0.74235,-3.82421 -3.77113,-0.97684 0.15958,-3.89232 -3.44421,-1.82019 1.05292,-3.7506 -2.93161,-2.56541 1.88948,-3.40669 -2.26096,-3.17234 2.62419,-2.87911 -1.46843,-3.60824 3.21743,-2.19633 -0.59673,-3.84962 3.6372,-1.39514 0.30715,-3.88347 3.8609,-0.51873 1.19445,-3.70796 3.87646,0.38563 2.01737,-3.33254 3.68304,1.26921 2.73153,-2.77748 3.29106,2.08436 3.29843,-2.07268 2.72166,2.78716 3.68752,-1.25614 2.00554,3.33968 3.8778,-0.37188 1.18129,3.71217 3.85904,0.53242 0.29337,3.88454 3.63223,1.40803 -0.61038,3.84748 3.20961,2.20772 -1.48121,3.60301 2.61396,2.88841 -2.2722,3.16429 1.87739,3.41337 -2.94069,2.555 1.0396,3.75431 -3.45064,1.80796 0.14577,3.89287 -3.77457,0.96345 -0.75591,3.82155 -3.89502,0.067 z"
         inkscape:randomized="0"
         inkscape:rounded="0"
         inkscape:flatsided="false"
         sodipodi:arg2="1.223504"
         sodipodi:arg1="1.1071487"
         sodipodi:r2="26.109873"
         sodipodi:r1="28.380297"
         sodipodi:cy="517.44952"
         sodipodi:cx="355.37753"
         sodipodi:sides="27"
         id="path4457"
         style="fill:#cccccc;fill-opacity:1;stroke:#666666;stroke-width:2.63411546;stroke-linecap:round;stroke-linejoin:round;stroke-miterlimit:4;stroke-opacity:1;stroke-dasharray:none"
         sodipodi:type="star" />
      <path
         transform="matrix(1.1982799,0,0,1.1982799,-13.631699,286.52027)"
         d="m 227.04674,554.11549 -3.40326,-2.91618 -3.54988,2.73582 -2.49028,-3.72623 -4.15635,1.67662 -1.39262,-4.25992 -4.45457,0.49308 -0.19166,-4.47768 -4.42241,-0.72703 1.02351,-4.36335 -4.06227,-1.89322 2.16278,-3.9254 -3.40085,-2.91901 3.14163,-3.19632 -2.48719,-3.7283 3.88749,-2.23019 -1.38908,-4.26108 4.34504,-1.09866 -0.18795,-4.47784 4.48032,0.11436 1.02714,-4.36249 4.28332,1.31889 2.16603,-3.9236 3.76866,2.42561 3.14428,-3.19372 2.97448,3.35244 3.88934,-2.22697 1.9597,4.03062 4.34594,-1.09505 0.79958,4.40988 4.48023,0.11807 -0.41984,4.46207 4.28223,1.32245 -1.60813,4.18333 3.76664,2.42874 -2.67713,3.59434 2.97169,3.3549 -3.5476,2.73877 1.95636,4.03224 -4.15496,1.68008 0.79592,4.41054 -4.45416,0.49677 -0.42354,4.46172 -4.42302,-0.72336 -1.6116,4.182 -4.06384,-1.88985 z"
         inkscape:randomized="0"
         inkscape:rounded="0"
         inkscape:flatsided="false"
         sodipodi:arg2="1.5967301"
         sodipodi:arg1="1.4601391"
         sodipodi:r2="22.475481"
         sodipodi:r1="25.540319"
         sodipodi:cy="528.73138"
         sodipodi:cx="224.22629"
         sodipodi:sides="23"
         id="path4459"
         style="fill:#cccccc;fill-opacity:1;stroke:#666666;stroke-width:2.7539475;stroke-linecap:round;stroke-linejoin:round;stroke-miterlimit:4;stroke-opacity:1;stroke-dasharray:none"
         sodipodi:type="star" />
      <path
         transform="matrix(1.2520917,0,0,1.2520917,-38.1769,210.40759)"
         d="m 243.96948,583.73023 -3.75421,-0.804 -2.27546,3.09239 -3.28975,-1.97943 -3.15626,2.18598 -2.46877,-2.94035 -3.69504,1.04271 -1.38028,-3.58265 -3.8334,-0.21357 -0.14221,-3.83671 -3.55634,-1.44669 1.11127,-3.675 -2.89391,-2.52306 2.24433,-3.11504 -1.91788,-3.326 3.13418,-2.21753 -0.73401,-3.76853 3.6844,-1.07971 0.52939,-3.80267 3.83535,0.17511 1.73543,-3.42473 3.57068,1.41096 2.75342,-2.67568 2.91907,2.49391 3.47302,-1.63667 1.95114,3.3066 3.81626,-0.42031 0.77177,3.76098 3.74596,0.84161 -0.49123,3.80778 3.26973,2.01232 -1.70101,3.44197 2.43917,2.96497 -2.72645,2.70315 1.34428,3.59631 -3.45643,1.67142 0.10373,3.83794 -3.81186,0.45855 z"
         inkscape:randomized="0"
         inkscape:rounded="0"
         inkscape:flatsided="false"
         sodipodi:arg2="1.2080689"
         sodipodi:arg1="1.0427219"
         sodipodi:r2="17.240536"
         sodipodi:r1="19.591516"
         sodipodi:cy="566.8075"
         sodipodi:cx="234.09789"
         sodipodi:sides="19"
         id="path4461"
         style="fill:#cccccc;fill-opacity:1;stroke:#666666;stroke-width:2.6355896;stroke-linecap:round;stroke-linejoin:round;stroke-miterlimit:4;stroke-opacity:1;stroke-dasharray:none"
         sodipodi:type="star" />
    </g>
    <g
       id="g4885"
       transform="translate(32,0)">
      <path
         sodipodi:type="star"
         style="fill:#000000;fill-opacity:0;stroke:#333333;stroke-width:30.1188221;stroke-linecap:round;stroke-linejoin:round;stroke-miterlimit:4;stroke-opacity:1;stroke-dasharray:none"
         id="path4754"
         sodipodi:sides="80"
         sodipodi:cx="23.432682"
         sodipodi:cy="699.28058"
         sodipodi:r1="205.96465"
         sodipodi:r2="194.22466"
         sodipodi:arg1="0.92130727"
         sodipodi:arg2="0.96057718"
         inkscape:flatsided="false"
         inkscape:rounded="0.2"
         inkscape:randomized="0"
         d="m 147.99589,863.30936 c -2.24977,1.70848 -10.94822,-6.47615 -13.26334,-4.85731 -2.31512,1.61883 2.38669,12.59809 0.01,14.12478 -2.37689,1.5267 -10.40637,-7.31517 -12.84136,-5.88297 -2.43499,1.4322 1.3909,12.74651 -1.09844,14.08201 -2.48935,1.3355 -9.80034,-8.10909 -12.3402,-6.87235 -2.53985,1.23674 0.38653,12.81635 -2.19992,13.95242 -2.58645,1.13607 -9.133894,-8.85303 -11.762954,-7.81938 -2.629059,1.03366 -0.620219,12.80717 -3.287833,13.73681 -2.667613,0.92964 -8.411139,-9.54237 -11.113193,-8.71818 -2.702054,0.82419 -1.623147,12.71903 -4.355475,13.4365 -2.732329,0.71748 -7.636525,-10.17289 -10.394915,-9.56324 -2.75839,0.60966 -2.616066,12.55247 -5.396264,13.05336 -2.780198,0.50089 -6.814828,-10.74068 -9.612548,-10.34933 -2.797719,0.39135 -3.592857,12.30852 -6.403784,12.58973 -2.810927,0.28121 -5.951116,-11.24226 -8.770916,-11.07162 -2.8198,0.17063 -4.547497,11.98868 -7.371822,12.04848 -2.824325,0.0598 -5.050713,-11.67452 -7.875209,-11.72565 -2.824495,-0.0511 -5.474099,11.59493 -8.29441,11.43296 -2.8203108,-0.16198 -4.1191712,-12.03481 -6.9309485,-12.30739 -2.8117771,-0.27257 -6.3669527,11.1297 -9.1658608,10.74694 -2.7989082,-0.38275 -3.1622331,-12.32089 -5.9439567,-12.81324 -2.781723,-0.49234 -7.220551,10.59585 -9.980801,9.99467 -2.760249,-0.60118 -2.185798,-12.53102 -4.920318,-13.2401 -2.734519,-0.70908 -8.029633,9.99666 -10.734205,9.18077 -2.704573,-0.81589 -1.195889,-12.66388 -3.866344,-13.58532 -2.670456,-0.92145 -8.78921,9.33584 -11.421431,8.31027 -2.632222,-1.02557 -0.198605,-12.71868 -2.788533,-13.8468 -2.589928,-1.12812 -9.494598,8.61747 -12.038239,7.38854 -2.543642,-1.22893 0.799903,-12.69505 -1.69353,-14.0229 -2.493432,-1.32785 -10.141448,7.84597 -12.580827,6.42126 -2.439379,-1.42472 1.79348,-12.59316 -0.588085,-14.11255 -2.381564,-1.51938 -10.725773,7.0261 -13.04585,5.41438 -2.320078,-1.61171 2.775998,-12.41362 0.520985,-14.11518 -2.255013,-1.70156 -11.243973,6.16291 -13.430443,4.37413 -2.18647,-1.78878 3.7414,-12.15755 1.62684,-14.0308 -2.11455,-1.87324 -11.69284,5.26172 -13.73223,3.3069 -2.03938,-1.95481 4.68374,-11.82652 2.72268,-13.85989 -1.96107,-2.03338 -12.06963,4.32808 -13.94936,2.21928 -1.87972,-2.10879 5.5972,-11.42259 3.80172,-13.60355 -1.79549,-2.18097 -12.372,3.36777 -14.08048,1.11799 -1.70848,-2.24978 6.47615,-10.94823 4.85732,-13.26334 -1.61884,-2.31512 -12.5981,2.38669 -14.12479,0.01 -1.5267,-2.37688 7.31517,-10.40636 5.88297,-12.84135 -1.4322,-2.43499 -12.74651,1.3909 -14.08201,-1.09845 -1.3355,-2.48934 8.10909,-9.80034 6.87235,-12.34019 -1.23673,-2.53986 -12.81635,0.38653 -13.95242,-2.19992 -1.13607,-2.58645 8.85303,-9.1339 7.81938,-11.76296 -1.03365,-2.62906 -12.80717,-0.62022 -13.73681,-3.28783 -0.92964,-2.66761 9.54237,-8.41114 8.71818,-11.11319 -0.82419,-2.70206 -12.71903,-1.62315 -13.4365,-4.35548 -0.71748,-2.73233 10.17289,-7.63652 9.56324,-10.39491 -0.60965,-2.75839 -12.55247,-2.61607 -13.05336,-5.39627 -0.50089,-2.7802 10.74068,-6.81483 10.34933,-9.61255 -0.39135,-2.79771 -12.30851,-3.59285 -12.58973,-6.40378 -0.28121,-2.81093 11.24226,-5.95112 11.07162,-8.77092 -0.17063,-2.8198 -11.98868,-4.54749 -12.04848,-7.37182 -0.0598,-2.82432 11.67452,-5.05071 11.72565,-7.87521 0.0511,-2.82449 -11.59493,-5.4741 -11.43296,-8.29441 0.16198,-2.82031 12.03481,-4.11917 12.30739,-6.93094 0.27257,-2.81178 -11.1297,-6.36696 -10.74694,-9.16587 0.38275,-2.7989 12.32089,-3.16223 12.81324,-5.94395 0.49234,-2.78173 -10.59585,-7.22055 -9.99467,-9.9808 0.60118,-2.76025 12.53102,-2.1858 13.2401,-4.92032 0.70908,-2.73452 -9.99666,-8.02963 -9.18077,-10.73421 0.81589,-2.70457 12.66388,-1.19589 13.58533,-3.86634 0.92144,-2.67046 -9.33585,-8.78921 -8.31028,-11.42143 1.02558,-2.63222 12.71868,-0.19861 13.8468,-2.78853 1.12812,-2.58993 -8.61747,-9.4946 -7.38854,-12.03824 1.22893,-2.54364 12.69505,0.7999 14.0229,-1.69353 1.32785,-2.49344 -7.84597,-10.14145 -6.42126,-12.58083 1.42472,-2.43938 12.59316,1.79348 14.11255,-0.58809 1.51939,-2.38156 -7.0261,-10.72577 -5.41438,-13.04585 1.61171,-2.32007 12.41362,2.776 14.11518,0.52099 1.70156,-2.25501 -6.16291,-11.24397 -4.37413,-13.43044 1.78878,-2.18647 12.15756,3.7414 14.0308,1.62684 1.87324,-2.11456 -5.26172,-11.69284 -3.3069,-13.73223 1.95481,-2.03938 11.82652,4.68374 13.8599,2.72267 2.03337,-1.96106 -4.32809,-12.06963 -2.21929,-13.94935 2.10879,-1.87973 11.42259,5.5972 13.60355,3.80171 2.180971,-1.79548 -3.36777,-12.372 -1.11799,-14.08047 2.249779,-1.70848 10.948226,6.47615 13.263343,4.85731 2.315116,-1.61883 -2.386691,-12.59809 -0.0098,-14.12479 2.376887,-1.52669 10.406361,7.31518 12.841353,5.88298 2.434992,-1.4322 -1.390898,-12.74652 1.098445,-14.08202 2.489343,-1.3355 9.80034,8.1091 12.340195,6.87236 2.539855,-1.23674 -0.386531,-12.81635 2.19992,-13.95242 2.586451,-1.13607 9.133896,8.85303 11.762956,7.81937 2.629059,-1.03365 0.62022,-12.80716 3.287833,-13.7368 2.667613,-0.92964 8.411139,9.54237 11.113193,8.71818 2.702054,-0.8242 1.623147,-12.71903 4.355475,-13.4365 2.732329,-0.71748 7.636525,10.17288 10.394915,9.56323 2.75839,-0.60965 2.616066,-12.55246 5.396264,-13.05335 2.780198,-0.50089 6.8148283,10.74068 9.6125478,10.34933 2.79771936,-0.39135 3.59285722,-12.30852 6.403784,-12.58973 2.8109269,-0.28121 5.9511159,11.24226 8.7709162,11.07162 2.8198,-0.17064 4.547497,-11.98868 7.371822,-12.04848 2.824325,-0.0598 5.050713,11.67452 7.875209,11.72565 2.824495,0.0511 5.474099,-11.59494 8.29441,-11.43296 2.820311,0.16198 4.119171,12.03481 6.930949,12.30738 2.811777,0.27258 6.366952,-11.12969 9.16586,-10.74694 2.798909,0.38276 3.162234,12.3209 5.943957,12.81324 2.781723,0.49235 7.220551,-10.59584 9.980801,-9.99466 2.760249,0.60117 2.185798,12.53102 4.920318,13.2401 2.734519,0.70908 8.029633,-9.99667 10.734205,-9.18078 2.704573,0.81589 1.195889,12.66389 3.866345,13.58533 2.670455,0.92144 8.789209,-9.33584 11.42143,-8.31027 2.632218,1.02557 0.198605,12.71867 2.788538,13.8468 2.58992,1.12812 9.49459,-8.61748 12.03823,-7.38854 2.54365,1.22893 -0.7999,12.69505 1.69353,14.0229 2.49344,1.32784 10.14145,-7.84598 12.58083,-6.42126 2.43938,1.42472 -1.79348,12.59316 0.58809,14.11254 2.38156,1.51939 10.72577,-7.02609 13.04585,-5.41438 2.32007,1.61172 -2.776,12.41362 -0.52099,14.11518 2.25501,1.70156 11.24397,-6.1629 13.43044,-4.37412 2.18647,1.78878 -3.7414,12.15755 -1.62684,14.03079 2.11456,1.87324 11.69284,-5.26171 13.73223,-3.3069 2.03939,1.95482 -4.68374,11.82653 -2.72267,13.8599 1.96107,2.03337 12.06963,-4.32808 13.94935,-2.21928 1.87973,2.10879 -5.5972,11.42258 -3.80171,13.60355 1.79548,2.18097 12.372,-3.36777 14.08048,-1.11799 1.70847,2.24978 -6.47616,10.94822 -4.85732,13.26334 1.61883,2.31512 12.59809,-2.38669 14.12479,-0.01 1.52669,2.37688 -7.31518,10.40636 -5.88298,12.84135 1.4322,2.43499 12.74652,-1.3909 14.08202,1.09844 1.3355,2.48935 -8.1091,9.80034 -6.87236,12.3402 1.23674,2.53985 12.81635,-0.38653 13.95242,2.19992 1.13607,2.58645 -8.85303,9.1339 -7.81937,11.76295 1.03365,2.62906 12.80717,0.62022 13.7368,3.28784 0.92964,2.66761 -9.54237,8.41114 -8.71818,11.11319 0.8242,2.70205 12.71903,1.62315 13.4365,4.35548 0.71748,2.73232 -10.17288,7.63652 -9.56323,10.39491 0.60965,2.75839 12.55247,2.61607 13.05335,5.39626 0.50089,2.7802 -10.74068,6.81483 -10.34933,9.61255 0.39135,2.79772 12.30852,3.59286 12.58973,6.40379 0.28121,2.81092 -11.24226,5.95111 -11.07162,8.77091 0.17064,2.8198 11.98868,4.5475 12.04848,7.37182 0.0598,2.82433 -11.67452,5.05072 -11.72564,7.87521 -0.0511,2.8245 11.59493,5.4741 11.43295,8.29441 -0.16198,2.82031 -12.03481,4.11917 -12.30738,6.93095 -0.27258,2.81178 11.12969,6.36695 10.74694,9.16586 -0.38276,2.79891 -12.3209,3.16224 -12.81324,5.94396 -0.49235,2.78172 10.59584,7.22055 9.99466,9.9808 -0.60117,2.76025 -12.53102,2.1858 -13.2401,4.92032 -0.70907,2.73452 9.99667,8.02963 9.18078,10.7342 -0.81589,2.70458 -12.66389,1.19589 -13.58533,3.86635 -0.92144,2.67045 9.33585,8.78921 8.31027,11.42143 -1.02557,2.63222 -12.71867,0.1986 -13.8468,2.78853 -1.12812,2.58993 8.61748,9.4946 7.38854,12.03824 -1.22893,2.54364 -12.69505,-0.7999 -14.02289,1.69353 -1.32785,2.49343 7.84597,10.14145 6.42125,12.58083 -1.42472,2.43938 -12.59316,-1.79348 -14.11254,0.58808 -1.51939,2.38157 7.02609,10.72578 5.41438,13.04585 -1.61172,2.32008 -12.41362,-2.776 -14.11518,-0.52098 -1.70156,2.25501 6.1629,11.24397 4.37412,13.43044 -1.78878,2.18647 -12.15755,-3.7414 -14.03079,-1.62684 -1.87324,2.11456 5.26171,11.69284 3.3069,13.73223 -1.95482,2.03938 -11.82653,-4.68374 -13.8599,-2.72268 -2.03337,1.96107 4.32808,12.06963 2.21929,13.94936 -2.1088,1.87973 -11.42259,-5.5972 -13.60356,-3.80171 -2.18097,1.79548 3.36777,12.37199 1.11799,14.08047 z"
         transform="matrix(1.040827,0,0,1.040827,936.61063,192.16991)" />
      <path
         sodipodi:type="arc"
         style="fill:#000000;fill-opacity:0;stroke:#b3b3b3;stroke-width:14.81171703;stroke-linecap:round;stroke-linejoin:round;stroke-miterlimit:4;stroke-opacity:1;stroke-dasharray:none"
         id="path4756"
         sodipodi:cx="248.96118"
         sodipodi:cy="929.07166"
         sodipodi:rx="196.89087"
         sodipodi:ry="187.94128"
         d="m 445.85205,929.07166 c 0,103.79714 -88.15104,187.94124 -196.89087,187.94124 -108.73982,0 -196.890868,-84.1441 -196.890868,-187.94124 0,-103.79711 88.151048,-187.94129 196.890868,-187.94129 108.73983,0 196.89087,84.14418 196.89087,187.94129 z"
         transform="matrix(0.94145377,0,0,0.98628486,726.61455,3.6707093)" />
      <g
         id="g4758"
         transform="translate(707.66033,0.3466468)">
        <path
           inkscape:transform-center-y="-12.624007"
           inkscape:transform-center-x="-90.549495"
           sodipodi:nodetypes="cc"
           id="path4760"
           d="M 254.33967,912.6703 433.43866,901.38847"
           style="fill:#000000;fill-opacity:1;stroke:#000000;stroke-width:2;stroke-linecap:round;stroke-linejoin:round;stroke-miterlimit:4;stroke-opacity:1;stroke-dasharray:none"
           inkscape:connector-curvature="0" />
        <path
           style="fill:#000000;fill-opacity:1;stroke:#000000;stroke-width:2;stroke-linecap:round;stroke-linejoin:round;stroke-miterlimit:4;stroke-opacity:1;stroke-dasharray:none"
           d="M 251.891,912.74941 416.33039,840.8925"
           id="path4762"
           sodipodi:nodetypes="cc"
           inkscape:transform-center-x="-80.771025"
           inkscape:transform-center-y="-42.832437"
           inkscape:connector-curvature="0" />
        <path
           inkscape:transform-center-y="-67.874642"
           inkscape:transform-center-x="-61.25038"
           sodipodi:nodetypes="cc"
           id="path4764"
           d="m 249.61706,913.66125 129.94598,-123.765"
           style="fill:#000000;fill-opacity:1;stroke:#000000;stroke-width:2;stroke-linecap:round;stroke-linejoin:round;stroke-miterlimit:4;stroke-opacity:1;stroke-dasharray:none"
           inkscape:connector-curvature="0" />
        <path
           style="fill:#000000;fill-opacity:1;stroke:#000000;stroke-width:2;stroke-linecap:round;stroke-linejoin:round;stroke-miterlimit:4;stroke-opacity:1;stroke-dasharray:none"
           d="m 247.79213,915.29583 79.77915,-160.7452"
           id="path4766"
           sodipodi:nodetypes="cc"
           inkscape:transform-center-x="-34.342035"
           inkscape:transform-center-y="-84.730162"
           inkscape:connector-curvature="0" />
        <path
           inkscape:transform-center-y="-91.365977"
           inkscape:transform-center-x="-3.291535"
           sodipodi:nodetypes="cc"
           id="path4768"
           d="M 246.63631,917.45599 266.6261,739.11884"
           style="fill:#000000;fill-opacity:1;stroke:#000000;stroke-width:2;stroke-linecap:round;stroke-linejoin:round;stroke-miterlimit:4;stroke-opacity:1;stroke-dasharray:none"
           inkscape:connector-curvature="0" />
        <path
           style="fill:#000000;fill-opacity:1;stroke:#000000;stroke-width:2;stroke-linecap:round;stroke-linejoin:round;stroke-miterlimit:4;stroke-opacity:1;stroke-dasharray:none"
           d="M 246.28902,919.88119 204.07838,745.46218"
           id="path4770"
           sodipodi:nodetypes="cc"
           inkscape:transform-center-x="28.15597"
           inkscape:transform-center-y="-86.981707"
           inkscape:connector-curvature="0" />
        <path
           inkscape:transform-center-y="-72.106157"
           inkscape:transform-center-x="56.20745"
           sodipodi:nodetypes="cc"
           id="path4772"
           d="M 246.79214,922.27892 147.4723,772.81555"
           style="fill:#000000;fill-opacity:1;stroke:#000000;stroke-width:2;stroke-linecap:round;stroke-linejoin:round;stroke-miterlimit:4;stroke-opacity:1;stroke-dasharray:none"
           inkscape:connector-curvature="0" />
        <path
           style="fill:#000000;fill-opacity:1;stroke:#000000;stroke-width:2;stroke-linecap:round;stroke-linejoin:round;stroke-miterlimit:4;stroke-opacity:1;stroke-dasharray:none"
           d="M 248.08499,924.35997 103.63538,817.87973"
           id="path4774"
           sodipodi:nodetypes="cc"
           inkscape:transform-center-x="77.479485"
           inkscape:transform-center-y="-48.533542"
           inkscape:connector-curvature="0" />
        <path
           inkscape:transform-center-y="-19.107062"
           inkscape:transform-center-x="89.40635"
           sodipodi:nodetypes="cc"
           id="path4776"
           d="M 250.01163,925.87334 77.855011,875.21932"
           style="fill:#000000;fill-opacity:1;stroke:#000000;stroke-width:2;stroke-linecap:round;stroke-linejoin:round;stroke-miterlimit:4;stroke-opacity:1;stroke-dasharray:none"
           inkscape:connector-curvature="0" />
        <path
           style="fill:#000000;fill-opacity:1;stroke:#000000;stroke-width:2;stroke-linecap:round;stroke-linejoin:round;stroke-miterlimit:4;stroke-opacity:1;stroke-dasharray:none"
           d="M 252.33968,926.63649 73.240683,937.91831"
           id="path4778"
           sodipodi:nodetypes="cc"
           inkscape:transform-center-x="90.549489"
           inkscape:transform-center-y="12.624008"
           inkscape:connector-curvature="0" />
        <path
           inkscape:transform-center-y="42.832433"
           inkscape:transform-center-x="80.77102"
           sodipodi:nodetypes="cc"
           id="path4780"
           d="M 254.78835,926.55737 90.348951,998.41428"
           style="fill:#000000;fill-opacity:1;stroke:#000000;stroke-width:2;stroke-linecap:round;stroke-linejoin:round;stroke-miterlimit:4;stroke-opacity:1;stroke-dasharray:none"
           inkscape:connector-curvature="0" />
        <path
           style="fill:#000000;fill-opacity:1;stroke:#000000;stroke-width:2;stroke-linecap:round;stroke-linejoin:round;stroke-miterlimit:4;stroke-opacity:1;stroke-dasharray:none"
           d="M 257.06228,925.64553 127.1163,1049.4105"
           id="path4782"
           sodipodi:nodetypes="cc"
           inkscape:transform-center-x="61.250381"
           inkscape:transform-center-y="67.874623"
           inkscape:connector-curvature="0" />
        <path
           inkscape:transform-center-y="84.730133"
           inkscape:transform-center-x="34.342041"
           sodipodi:nodetypes="cc"
           id="path4784"
           d="M 258.88721,924.01095 179.10805,1084.7561"
           style="fill:#000000;fill-opacity:1;stroke:#000000;stroke-width:2;stroke-linecap:round;stroke-linejoin:round;stroke-miterlimit:4;stroke-opacity:1;stroke-dasharray:none"
           inkscape:connector-curvature="0" />
        <path
           style="fill:#000000;fill-opacity:1;stroke:#000000;stroke-width:2;stroke-linecap:round;stroke-linejoin:round;stroke-miterlimit:4;stroke-opacity:1;stroke-dasharray:none"
           d="M 260.04303,921.85079 240.05322,1100.1879"
           id="path4786"
           sodipodi:nodetypes="cc"
           inkscape:transform-center-x="3.291546"
           inkscape:transform-center-y="91.365953"
           inkscape:connector-curvature="0" />
        <path
           inkscape:transform-center-y="86.981703"
           inkscape:transform-center-x="-28.155954"
           sodipodi:nodetypes="cc"
           id="path4788"
           d="m 260.39032,919.42559 42.21061,174.41901"
           style="fill:#000000;fill-opacity:1;stroke:#000000;stroke-width:2;stroke-linecap:round;stroke-linejoin:round;stroke-miterlimit:4;stroke-opacity:1;stroke-dasharray:none"
           inkscape:connector-curvature="0" />
        <path
           style="fill:#000000;fill-opacity:1;stroke:#000000;stroke-width:2;stroke-linecap:round;stroke-linejoin:round;stroke-miterlimit:4;stroke-opacity:1;stroke-dasharray:none"
           d="m 259.8872,917.02786 99.31981,149.46334"
           id="path4790"
           sodipodi:nodetypes="cc"
           inkscape:transform-center-x="-56.207434"
           inkscape:transform-center-y="72.106138"
           inkscape:connector-curvature="0" />
        <path
           inkscape:transform-center-y="48.533513"
           inkscape:transform-center-x="-77.479464"
           sodipodi:nodetypes="cc"
           id="path4792"
           d="M 258.59435,914.94681 403.04392,1021.427"
           style="fill:#000000;fill-opacity:1;stroke:#000000;stroke-width:2;stroke-linecap:round;stroke-linejoin:round;stroke-miterlimit:4;stroke-opacity:1;stroke-dasharray:none"
           inkscape:connector-curvature="0" />
        <path
           style="fill:#000000;fill-opacity:1;stroke:#000000;stroke-width:2;stroke-linecap:round;stroke-linejoin:round;stroke-miterlimit:4;stroke-opacity:1;stroke-dasharray:none"
           d="m 256.66771,913.43345 172.15656,50.65398"
           id="path4794"
           sodipodi:nodetypes="cc"
           inkscape:transform-center-x="-89.406319"
           inkscape:transform-center-y="19.107048"
           inkscape:connector-curvature="0" />
        <path
           inkscape:transform-center-y="21.620918"
           inkscape:transform-center-x="88.831891"
           sodipodi:nodetypes="cc"
           id="path4796"
           d="M 249.83754,913.52978 79.17802,969.01884"
           style="fill:#000000;fill-opacity:1;stroke:#000000;stroke-width:2;stroke-linecap:round;stroke-linejoin:round;stroke-miterlimit:4;stroke-opacity:1;stroke-dasharray:none"
           inkscape:connector-curvature="0" />
        <path
           style="fill:#000000;fill-opacity:1;stroke:#000000;stroke-width:2;stroke-linecap:round;stroke-linejoin:round;stroke-miterlimit:4;stroke-opacity:1;stroke-dasharray:none"
           d="M 247.95435,915.09688 106.56523,1025.6085"
           id="path4798"
           sodipodi:nodetypes="cc"
           inkscape:transform-center-x="76.079881"
           inkscape:transform-center-y="50.699298"
           inkscape:connector-curvature="0" />
        <path
           inkscape:transform-center-y="73.662588"
           inkscape:transform-center-x="54.151521"
           sodipodi:nodetypes="cc"
           id="path4800"
           d="M 246.72071,917.21356 151.65559,1069.4184"
           style="fill:#000000;fill-opacity:1;stroke:#000000;stroke-width:2;stroke-linecap:round;stroke-linejoin:round;stroke-miterlimit:4;stroke-opacity:1;stroke-dasharray:none"
           inkscape:connector-curvature="0" />
        <path
           style="fill:#000000;fill-opacity:1;stroke:#000000;stroke-width:2;stroke-linecap:round;stroke-linejoin:round;stroke-miterlimit:4;stroke-opacity:1;stroke-dasharray:none"
           d="M 246.28541,919.62452 209.01054,1095.1645"
           id="path4802"
           sodipodi:nodetypes="cc"
           inkscape:transform-center-x="25.691696"
           inkscape:transform-center-y="87.741118"
           inkscape:connector-curvature="0" />
        <path
           inkscape:transform-center-y="91.236738"
           inkscape:transform-center-x="-5.866934"
           sodipodi:nodetypes="cc"
           id="path4804"
           d="m 246.70096,922.03896 25.01129,177.70234"
           style="fill:#000000;fill-opacity:1;stroke:#000000;stroke-width:2;stroke-linecap:round;stroke-linejoin:round;stroke-miterlimit:4;stroke-opacity:1;stroke-dasharray:none"
           inkscape:connector-curvature="0" />
        <path
           style="fill:#000000;fill-opacity:1;stroke:#000000;stroke-width:2;stroke-linecap:round;stroke-linejoin:round;stroke-miterlimit:4;stroke-opacity:1;stroke-dasharray:none"
           d="m 247.91724,924.16567 84.2807,158.43123"
           id="path4806"
           sodipodi:nodetypes="cc"
           inkscape:transform-center-x="-36.717919"
           inkscape:transform-center-y="83.727893"
           inkscape:connector-curvature="0" />
        <path
           inkscape:transform-center-y="66.120223"
           inkscape:transform-center-x="-63.140184"
           sodipodi:nodetypes="cc"
           id="path4808"
           d="M 249.78754,925.74813 383.17217,1045.7991"
           style="fill:#000000;fill-opacity:1;stroke:#000000;stroke-width:2;stroke-linecap:round;stroke-linejoin:round;stroke-miterlimit:4;stroke-opacity:1;stroke-dasharray:none"
           inkscape:connector-curvature="0" />
        <path
           style="fill:#000000;fill-opacity:1;stroke:#000000;stroke-width:2;stroke-linecap:round;stroke-linejoin:round;stroke-miterlimit:4;stroke-opacity:1;stroke-dasharray:none"
           d="m 252.08628,926.59547 166.40041,67.19078"
           id="path4810"
           sodipodi:nodetypes="cc"
           inkscape:transform-center-x="-81.946814"
           inkscape:transform-center-y="40.537468"
           inkscape:connector-curvature="0" />
        <path
           inkscape:transform-center-y="10.065298"
           inkscape:transform-center-x="-90.869449"
           sodipodi:nodetypes="cc"
           id="path4812"
           d="m 254.5362,926.6055 179.34584,6.22638"
           style="fill:#000000;fill-opacity:1;stroke:#000000;stroke-width:2;stroke-linecap:round;stroke-linejoin:round;stroke-miterlimit:4;stroke-opacity:1;stroke-dasharray:none"
           inkscape:connector-curvature="0" />
        <path
           style="fill:#000000;fill-opacity:1;stroke:#000000;stroke-width:2;stroke-linecap:round;stroke-linejoin:round;stroke-miterlimit:4;stroke-opacity:1;stroke-dasharray:none"
           d="M 256.8418,925.777 427.50131,870.28799"
           id="path4814"
           sodipodi:nodetypes="cc"
           inkscape:transform-center-x="-88.831884"
           inkscape:transform-center-y="-21.620897"
           inkscape:connector-curvature="0" />
        <path
           inkscape:transform-center-y="-50.699292"
           inkscape:transform-center-x="-76.079884"
           sodipodi:nodetypes="cc"
           id="path4816"
           d="M 258.72499,924.2099 400.11412,813.6983"
           style="fill:#000000;fill-opacity:1;stroke:#000000;stroke-width:2;stroke-linecap:round;stroke-linejoin:round;stroke-miterlimit:4;stroke-opacity:1;stroke-dasharray:none"
           inkscape:connector-curvature="0" />
        <path
           style="fill:#000000;fill-opacity:1;stroke:#000000;stroke-width:2;stroke-linecap:round;stroke-linejoin:round;stroke-miterlimit:4;stroke-opacity:1;stroke-dasharray:none"
           d="M 259.95863,922.09322 355.02376,769.88836"
           id="path4818"
           sodipodi:nodetypes="cc"
           inkscape:transform-center-x="-54.151524"
           inkscape:transform-center-y="-73.662602"
           inkscape:connector-curvature="0" />
        <path
           inkscape:transform-center-y="-87.741117"
           inkscape:transform-center-x="-25.691694"
           sodipodi:nodetypes="cc"
           id="path4820"
           d="M 260.39393,919.68226 297.6688,744.14229"
           style="fill:#000000;fill-opacity:1;stroke:#000000;stroke-width:2;stroke-linecap:round;stroke-linejoin:round;stroke-miterlimit:4;stroke-opacity:1;stroke-dasharray:none"
           inkscape:connector-curvature="0" />
        <path
           style="fill:#000000;fill-opacity:1;stroke:#000000;stroke-width:2;stroke-linecap:round;stroke-linejoin:round;stroke-miterlimit:4;stroke-opacity:1;stroke-dasharray:none"
           d="M 259.97838,917.26782 234.96709,739.56545"
           id="path4822"
           sodipodi:nodetypes="cc"
           inkscape:transform-center-x="5.866936"
           inkscape:transform-center-y="-91.236757"
           inkscape:connector-curvature="0" />
        <path
           inkscape:transform-center-y="-83.727897"
           inkscape:transform-center-x="36.717926"
           sodipodi:nodetypes="cc"
           id="path4824"
           d="M 258.7621,915.14112 174.48139,756.70987"
           style="fill:#000000;fill-opacity:1;stroke:#000000;stroke-width:2;stroke-linecap:round;stroke-linejoin:round;stroke-miterlimit:4;stroke-opacity:1;stroke-dasharray:none"
           inkscape:connector-curvature="0" />
        <path
           style="fill:#000000;fill-opacity:1;stroke:#000000;stroke-width:2;stroke-linecap:round;stroke-linejoin:round;stroke-miterlimit:4;stroke-opacity:1;stroke-dasharray:none"
           d="M 256.8918,913.55866 123.50716,793.50769"
           id="path4826"
           sodipodi:nodetypes="cc"
           inkscape:transform-center-x="63.140191"
           inkscape:transform-center-y="-66.120217"
           inkscape:connector-curvature="0" />
        <path
           inkscape:transform-center-y="-40.537462"
           inkscape:transform-center-x="81.946818"
           sodipodi:nodetypes="cc"
           id="path4828"
           d="M 254.59306,912.71132 88.192647,845.52054"
           style="fill:#000000;fill-opacity:1;stroke:#000000;stroke-width:2;stroke-linecap:round;stroke-linejoin:round;stroke-miterlimit:4;stroke-opacity:1;stroke-dasharray:none"
           inkscape:connector-curvature="0" />
        <path
           style="fill:#000000;fill-opacity:1;stroke:#000000;stroke-width:2;stroke-linecap:round;stroke-linejoin:round;stroke-miterlimit:4;stroke-opacity:1;stroke-dasharray:none"
           d="M 252.14314,912.70129 72.797303,906.47491"
           id="path4830"
           sodipodi:nodetypes="cc"
           inkscape:transform-center-x="90.86945"
           inkscape:transform-center-y="-10.065292"
           inkscape:connector-curvature="0" />
      </g>
      <path
         transform="matrix(1.3008044,0,0,1.2543472,-377.06693,129.73816)"
         d="m 1041.117,630.01843 c 0,7.14277 -5.5836,12.93313 -12.4712,12.93313 -6.8877,0 -12.4713,-5.79036 -12.4713,-12.93313 0,-7.14277 5.5836,-12.93313 12.4713,-12.93313 6.8876,0 12.4712,5.79036 12.4712,12.93313 z"
         sodipodi:ry="12.93313"
         sodipodi:rx="12.471233"
         sodipodi:cy="630.01843"
         sodipodi:cx="1028.6458"
         id="path4883"
         style="fill:#b3b3b3;fill-opacity:1;stroke:#000000;stroke-width:2;stroke-linecap:round;stroke-linejoin:round;stroke-miterlimit:4;stroke-opacity:1;stroke-dasharray:none"
         sodipodi:type="arc" />
    </g>
    <g
       id="g4225">
      <path
         id="path3104"
         d="m 798.60193,564.12465 28.7549,81.03653 30.06194,-11.76337 -30.06194,-79.72949 -28.7549,10.45633 z"
         style="fill:#000080;fill-opacity:1;stroke:#000000;stroke-width:2;stroke-linecap:round;stroke-linejoin:round;stroke-miterlimit:4;stroke-opacity:1;stroke-dasharray:none"
         inkscape:connector-curvature="0" />
      <path
         sodipodi:nodetypes="cccacc"
         id="path3106"
         d="m 431.32347,650.38934 24.18025,-6.5352 79.43159,291.66714 c 0,0 -8.90862,0.57251 -12.4169,2.9833 -3.53285,2.42767 -7.28724,10.59566 -7.28724,10.59566 l -83.9077,-298.7109 z"
         style="fill:#000080;fill-opacity:1;stroke:#000000;stroke-width:2;stroke-linecap:round;stroke-linejoin:round;stroke-miterlimit:4;stroke-opacity:1;stroke-dasharray:none"
         inkscape:connector-curvature="0" />
      <path
         sodipodi:nodetypes="ccccc"
         id="path3118"
         d="m 518.48598,962.47613 -272.64415,-29.11286 6.46953,-16.1738 261.55353,26.8023 4.62109,18.48436 z"
         style="fill:#000080;fill-opacity:1;stroke:#000000;stroke-width:2;stroke-linecap:round;stroke-linejoin:round;stroke-miterlimit:4;stroke-opacity:1;stroke-dasharray:none"
         inkscape:connector-curvature="0" />
      <path
         sodipodi:nodetypes="ccscccsc"
         id="path3110"
         d="m 459.42484,658.23158 341.79118,-84.95765 c 0,0 5.68955,2.08885 7.10943,6.76626 1.64059,5.40448 -1.88127,10.87879 -1.88127,10.87879 l -20.91265,16.33801 -316.9574,79.72949 c 0,0 -9.28946,-0.76565 -12.41689,-11.99442 -3.55579,-12.76679 3.2676,-16.76048 3.2676,-16.76048 z"
         style="fill:#000080;fill-opacity:1;stroke:#000000;stroke-width:2;stroke-linecap:round;stroke-linejoin:round;stroke-miterlimit:4;stroke-opacity:1;stroke-dasharray:none"
         inkscape:connector-curvature="0" />
      <path
         sodipodi:nodetypes="ccccacccac"
         id="path3112"
         d="m 806.84181,590.94072 -22.18122,16.63591 -253.69768,311.92338 3.85544,15.9824 c 0,0 8.73079,2.59536 11.42699,5.93493 2.84866,3.5284 3.58474,13.12365 3.58474,13.12365 L 794.82698,653.78751 822.5535,632.5305 c 0,0 -0.80098,-19.17098 -4.62108,-27.72652 -2.41278,-5.40368 -11.09061,-13.86326 -11.09061,-13.86326 z"
         style="fill:#000080;fill-opacity:1;stroke:#000000;stroke-width:2;stroke-linecap:round;stroke-linejoin:round;stroke-miterlimit:4;stroke-opacity:1;stroke-dasharray:none"
         inkscape:connector-curvature="0" />
      <path
         transform="matrix(1.0087524,0,0,1.0293392,-4.4996642,-28.438506)"
         d="m 548.95715,952.64252 c 0,8.84277 -7.31478,16.01125 -16.33801,16.01125 -9.02323,0 -16.33801,-7.16848 -16.33801,-16.01125 0,-8.84277 7.31478,-16.01125 16.33801,-16.01125 9.02323,0 16.33801,7.16848 16.33801,16.01125 z"
         sodipodi:ry="16.01125"
         sodipodi:rx="16.338011"
         sodipodi:cy="952.64252"
         sodipodi:cx="532.61914"
         id="path3114"
         style="fill:#000080;fill-opacity:1;stroke:#000000;stroke-width:2;stroke-linecap:round;stroke-linejoin:round;stroke-miterlimit:4;stroke-opacity:1;stroke-dasharray:none"
         sodipodi:type="arc" />
      <path
         sodipodi:nodetypes="ccccc"
         id="path3120"
         d="m 431.97699,649.0823 -50.97459,-172.52938 23.52673,-1.96057 49.01403,168.28151 -21.56617,6.20844 z"
         style="fill:#4d4d4d;fill-opacity:1;stroke:#000000;stroke-width:2;stroke-linecap:round;stroke-linejoin:round;stroke-miterlimit:4;stroke-opacity:1;stroke-dasharray:none"
         inkscape:connector-curvature="0" />
      <path
         sodipodi:nodetypes="caaaaaaasaaaaaasa"
         id="path3122"
         d="m 304.54051,460.2149 c 4.59783,-6.89909 16.21959,-4.01085 24.50701,-4.24788 9.53454,-0.2727 18.93756,2.31328 28.42814,3.2676 12.61796,1.26879 25.22981,2.83982 37.90418,3.2676 11.75869,0.39688 23.52688,-0.87901 35.29011,-0.65352 13.41638,0.25718 26.89978,0.44459 40.1915,2.28732 5.96808,0.8274 12.24161,1.25553 17.64505,3.92113 3.95215,1.94966 10.28181,4.0915 10.12957,8.49576 -0.0512,1.48059 -2.11292,2.62349 -3.59436,2.61408 -10.48914,-0.0666 -20.17779,-3.75574 -30.3887,-4.57464 -10.2063,-0.81852 -20.4799,-0.59469 -30.71546,-0.32676 -12.11,0.317 -24.22379,1.0098 -36.27038,2.28732 -9.52783,1.01041 -18.888,3.36122 -28.42814,4.24788 -5.86046,0.54467 -11.80408,1.37791 -17.64505,0.65353 -8.1069,-1.00539 -15.72387,-4.44373 -23.52674,-6.86197 -7.33672,-2.27378 -19.33631,-2.81585 -21.89293,-7.18872 -1.24028,-2.12139 -2.99657,-5.14388 -1.6338,-7.18873 z"
         style="fill:#000000;fill-opacity:1;stroke:#000000;stroke-width:2;stroke-linecap:round;stroke-linejoin:round;stroke-miterlimit:4;stroke-opacity:1;stroke-dasharray:none"
         inkscape:connector-curvature="0" />
      <path
         sodipodi:nodetypes="ccccc"
         id="path3132"
         d="m 866.91594,680.86051 32.62792,83.79626 26.20485,-10.43708 -33.01075,-83.58164 -25.82202,10.22246 z"
         style="fill:#d3bc5f;fill-opacity:1;stroke:#000000;stroke-width:2;stroke-linecap:round;stroke-linejoin:round;stroke-miterlimit:4;stroke-opacity:1;stroke-dasharray:none"
         inkscape:connector-curvature="0" />
      <path
         sodipodi:nodetypes="ccccccccc"
         id="path3128"
         d="m 827.17459,645.46955 31.42339,-11.09061 5.54531,6.46952 19.90351,-0.38282 11.03455,30.71381 -30.01385,11.58556 -11.0906,-20.65955 -23.10544,-5.5453 -3.69687,-11.09061 z"
         style="fill:#333333;fill-opacity:1;stroke:#000000;stroke-width:2;stroke-linecap:round;stroke-linejoin:round;stroke-miterlimit:4;stroke-opacity:1;stroke-dasharray:none"
         inkscape:connector-curvature="0" />
      <path
         sodipodi:nodetypes="ccccccc"
         id="path3130"
         d="m 892.33191,754.0651 31.88551,-12.47694 65.61944,172.82866 15.01854,1.61738 5.3142,11.32166 -42.51397,15.24958 -75.32372,-188.54034 z"
         style="fill:#333333;fill-opacity:1;stroke:#000000;stroke-width:2;stroke-linecap:round;stroke-linejoin:round;stroke-miterlimit:4;stroke-opacity:1;stroke-dasharray:none"
         inkscape:connector-curvature="0" />
      <path
         id="path3125"
         d="m 906.34516,485.70203 13.39104,19.92326 -6.85882,13.71766 -11.10477,-4.24594 0.97983,5.22577 -9.14511,9.47171 -12.73782,-1.63305 -12.0846,-9.47172 -7.83866,1.95967 -5.879,-5.55238 51.27791,-29.39498 z"
         style="fill:#d3bc5f;fill-opacity:1;stroke:#000000;stroke-width:2;stroke-linecap:round;stroke-linejoin:round;stroke-miterlimit:4;stroke-opacity:1;stroke-dasharray:none"
         inkscape:connector-curvature="0" />
      <path
         sodipodi:nodetypes="ccsccc"
         id="path3123"
         d="M 897.69783,470.89476 877.37434,483.366 c 0,0 -2.35937,7.64818 0.69285,12.70218 4.02912,6.6716 10.62364,7.15941 10.62364,7.15941 l 23.78772,-10.16175 -14.78072,-22.17108 z"
         style="fill:#808080;fill-opacity:1;stroke:#000000;stroke-width:2;stroke-linecap:round;stroke-linejoin:round;stroke-miterlimit:4;stroke-opacity:1;stroke-dasharray:none"
         inkscape:connector-curvature="0" />
      <path
         sodipodi:nodetypes="cccscccsccccc"
         id="path3134"
         d="m 798.60193,563.47113 0.98029,-11.10985 -11.10985,-35.2901 c 0,0 4.04472,-4.22266 9.47604,-5.88169 6.62565,-2.02384 11.10985,-0.98028 11.10985,-0.98028 l 1.30704,2.94084 67.3126,-29.40841 c 0,0 -2.0356,7.57899 0.32676,11.76336 2.92907,5.18815 10.12957,7.51549 10.12957,7.51549 l -69.27316,32.34926 2.61408,9.14928 6.20844,9.14929 -29.08166,9.80281 z"
         style="fill:#1a1a1a;fill-opacity:1;stroke:#000000;stroke-width:2;stroke-linecap:round;stroke-linejoin:round;stroke-miterlimit:4;stroke-opacity:1;stroke-dasharray:none"
         inkscape:connector-curvature="0" />
      <path
         transform="translate(9.1492857,-9.1492857)"
         d="m 909.70043,490.93036 c 0,7.57952 -6.14441,13.72393 -13.72393,13.72393 -7.57951,0 -13.72393,-6.14441 -13.72393,-13.72393 0,-7.57952 6.14442,-13.72393 13.72393,-13.72393 7.57952,0 13.72393,6.14441 13.72393,13.72393 z"
         sodipodi:ry="13.723928"
         sodipodi:rx="13.723928"
         sodipodi:cy="490.93036"
         sodipodi:cx="895.9765"
         id="path3119"
         style="fill:#1a1a1a;fill-opacity:1;stroke:#000000;stroke-width:2;stroke-linecap:round;stroke-linejoin:round;stroke-miterlimit:4;stroke-opacity:1;stroke-dasharray:none"
         sodipodi:type="arc" />
      <path
         sodipodi:nodetypes="ccaccac"
         id="path3127"
         d="m 915.81687,507.25834 -4.89916,8.16527 c 0,0 10.9185,2.35447 16.00393,4.57256 4.43257,1.93334 12.41122,7.51205 12.41122,7.51205 l 4.89916,-5.879 c 0,0 -6.75229,-6.32106 -10.77816,-8.49188 -5.45456,-2.9412 -17.63699,-5.879 -17.63699,-5.879 z"
         style="fill:#333333;fill-opacity:1;stroke:#000000;stroke-width:2;stroke-linecap:round;stroke-linejoin:round;stroke-miterlimit:4;stroke-opacity:1;stroke-dasharray:none"
         inkscape:connector-curvature="0" />
      <path
         transform="translate(59.122883,-47.575445)"
         sodipodi:type="star"
         style="fill:#333333;fill-opacity:1;stroke:#000000;stroke-width:2;stroke-linecap:round;stroke-linejoin:round;stroke-miterlimit:4;stroke-opacity:1;stroke-dasharray:none"
         id="path3131"
         sodipodi:sides="12"
         sodipodi:cx="220.32512"
         sodipodi:cy="1027.7122"
         sodipodi:r1="13.864622"
         sodipodi:r2="11.646282"
         sodipodi:arg1="1.047518"
         sodipodi:arg2="1.3093174"
         inkscape:flatsided="false"
         inkscape:rounded="0.2"
         inkscape:randomized="0"
         d="m 227.25358,1039.7215 c -0.69132,0.3988 -3.14679,-0.9653 -3.91779,-0.7589 -0.77099,0.2063 -2.21699,2.6144 -3.01511,2.6142 -0.79813,-3e-4 -2.24258,-2.4093 -3.01345,-2.6162 -0.77086,-0.2068 -3.2272,1.1557 -3.91827,0.7565 -0.69107,-0.3993 -0.73747,-3.2079 -1.30164,-3.7724 -0.56418,-0.5646 -3.3727,-0.6128 -3.77154,-1.3041 -0.39884,-0.6913 0.96525,-3.1468 0.75893,-3.9178 -0.20632,-0.771 -2.61447,-2.217 -2.61421,-3.0151 2.5e-4,-0.7981 2.40932,-2.2426 2.61614,-3.0134 0.20682,-0.7709 -1.1557,-3.2272 -0.75641,-3.9183 0.39928,-0.6911 3.20782,-0.7375 3.77236,-1.3016 0.56454,-0.5642 0.61274,-3.3727 1.30407,-3.7716 0.69132,-0.3988 3.14679,0.9653 3.91778,0.7589 0.771,-0.2063 2.217,-2.6144 3.01512,-2.6142 0.79813,3e-4 2.24258,2.4094 3.01344,2.6162 0.77087,0.2068 3.22721,-1.1557 3.91828,-0.7564 0.69106,0.3992 0.73746,3.2078 1.30164,3.7723 0.56418,0.5646 3.37269,0.6128 3.77153,1.3041 0.39885,0.6913 -0.96524,3.1468 -0.75892,3.9178 0.20632,0.771 2.61447,2.217 2.61421,3.0151 -2.6e-4,0.7981 -2.40933,2.2426 -2.61614,3.0134 -0.20682,0.7709 1.1557,3.2272 0.75641,3.9183 -0.39928,0.6911 -3.20783,0.7375 -3.77237,1.3017 -0.56453,0.5641 -0.61273,3.3727 -1.30406,3.7715 z" />
      <path
         transform="translate(3.6951802,1.3856926)"
         d="m 227.25358,1039.7215 c -0.69132,0.3988 -3.14679,-0.9653 -3.91779,-0.7589 -0.77099,0.2063 -2.21699,2.6144 -3.01511,2.6142 -0.79813,-3e-4 -2.24258,-2.4093 -3.01345,-2.6162 -0.77086,-0.2068 -3.2272,1.1557 -3.91827,0.7565 -0.69107,-0.3993 -0.73747,-3.2079 -1.30164,-3.7724 -0.56418,-0.5646 -3.3727,-0.6128 -3.77154,-1.3041 -0.39884,-0.6913 0.96525,-3.1468 0.75893,-3.9178 -0.20632,-0.771 -2.61447,-2.217 -2.61421,-3.0151 2.5e-4,-0.7981 2.40932,-2.2426 2.61614,-3.0134 0.20682,-0.7709 -1.1557,-3.2272 -0.75641,-3.9183 0.39928,-0.6911 3.20782,-0.7375 3.77236,-1.3016 0.56454,-0.5642 0.61274,-3.3727 1.30407,-3.7716 0.69132,-0.3988 3.14679,0.9653 3.91778,0.7589 0.771,-0.2063 2.217,-2.6144 3.01512,-2.6142 0.79813,3e-4 2.24258,2.4094 3.01344,2.6162 0.77087,0.2068 3.22721,-1.1557 3.91828,-0.7564 0.69106,0.3992 0.73746,3.2078 1.30164,3.7723 0.56418,0.5646 3.37269,0.6128 3.77153,1.3041 0.39885,0.6913 -0.96524,3.1468 -0.75892,3.9178 0.20632,0.771 2.61447,2.217 2.61421,3.0151 -2.6e-4,0.7981 -2.40933,2.2426 -2.61614,3.0134 -0.20682,0.7709 1.1557,3.2272 0.75641,3.9183 -0.39928,0.6911 -3.20783,0.7375 -3.77237,1.3017 -0.56453,0.5641 -0.61273,3.3727 -1.30406,3.7715 z"
         inkscape:randomized="0"
         inkscape:rounded="0.2"
         inkscape:flatsided="false"
         sodipodi:arg2="1.3093174"
         sodipodi:arg1="1.047518"
         sodipodi:r2="11.646282"
         sodipodi:r1="13.864622"
         sodipodi:cy="1027.7122"
         sodipodi:cx="220.32512"
         sodipodi:sides="12"
         id="path3129"
         style="fill:#333333;fill-opacity:1;stroke:#000000;stroke-width:2;stroke-linecap:round;stroke-linejoin:round;stroke-miterlimit:4;stroke-opacity:1;stroke-dasharray:none"
         sodipodi:type="star" />
      <path
         sodipodi:nodetypes="csasszaszssss"
         id="path3957"
         d="m 531.875,887.5 c -110.79079,2.83593 -198.66745,8.79838 -296.25,9.375 -10.0215,0.0592 -20.10348,11.8669 -20.625,21.875 -0.51824,9.94519 8.41496,19.66141 18.125,23.75 18.94344,7.97649 32.11803,13.94105 51.06044,25.45765 4.46458,2.71438 8.29486,7.84069 7.22541,13.21652 -1.06945,5.37583 -6.18136,9.8711 -10.78585,13.20083 -17.6567,12.7684 -39.22449,16.4518 -61.02903,23.4218 -6.21537,1.9868 -9.85394,10.1303 -7.72097,15.9532 2.13297,5.8229 10.95623,8.5584 16.25,8.125 102.63584,-8.4029 199.37807,-15.349 306.25,-25.625 29.91982,-2.8769 64.10325,-24.31926 62.5,-65 -1.51504,-38.44257 -34.66184,-64.52657 -65,-63.75 z"
         style="opacity:0.64516129;fill:#333333;fill-opacity:0;stroke:#666666;stroke-width:5;stroke-linecap:round;stroke-linejoin:round;stroke-miterlimit:4;stroke-opacity:1;stroke-dasharray:none"
         inkscape:connector-curvature="0" />
      <path
         sodipodi:nodetypes="cccccccac"
         id="path3116"
         d="m 439.16571,678.49072 -188.21387,201.9378 -25.29589,41.15818 0,10.45633 19.60561,1.57774 18.76068,-44.69648 180.37163,-193.44204 c 0,0 1.55814,-6.99421 0.46211,-10.22528 -0.94667,-2.79077 -5.69027,-6.76625 -5.69027,-6.76625 z"
         style="fill:#000080;fill-opacity:1;stroke:#000000;stroke-width:2;stroke-linecap:round;stroke-linejoin:round;stroke-miterlimit:4;stroke-opacity:1;stroke-dasharray:none"
         inkscape:connector-curvature="0" />
      <path
         sodipodi:nodetypes="ccscczc"
         id="path3137"
         d="m 246.91782,929.89281 -5.879,25.14904 c 0,0 -1.37931,6.19872 -10.12494,5.55239 -7.43232,-0.54928 -7.83866,-8.49189 -7.83866,-8.49189 l 2.28628,-24.49582 c 0,0 3.95088,-9.43802 11.75799,-8.16527 7.80711,1.27275 9.79833,10.45155 9.79833,10.45155 z"
         style="fill:#cccccc;fill-opacity:1;stroke:#000000;stroke-width:2;stroke-linecap:round;stroke-linejoin:round;stroke-miterlimit:4;stroke-opacity:1;stroke-dasharray:none"
         inkscape:connector-curvature="0" />
      <path
         sodipodi:nodetypes="czcazaccszzcczzzzcc"
         id="path3133"
         d="m 235.10584,1046.65 c 0,0 -13.17413,-0.9715 -18.9378,-5.5428 -5.76367,-4.5713 -12.00934,-21.2472 -12.00934,-21.2472 0,0 5.17351,2.081 7.85226,1.8476 12.8496,-1.1195 25.40575,-8.645 35.56611,-15.2427 10.16036,-6.5977 24.13119,-11.79305 24.94247,-23.09484 0.29785,-4.14925 -7.85226,-9.69985 -7.85226,-9.69985 l -1.84759,3.23328 c 0,0 -42.9654,4.15498 -44.34216,0 -3.07809,-9.28953 6.46656,-28.63764 6.46656,-28.63764 0,0 5.2875,-7.72366 11.54744,-4.15708 5.90808,3.36611 4.61898,10.16174 4.61898,10.16174 l -0.4619,4.15708 c 0,0 19.17115,-3.09701 27.25195,-0.4619 8.0808,2.63511 18.9378,14.31883 18.9378,14.31883 l 0,17.5521 c 0,0 -23.79862,17.42598 -32.79472,22.63298 -8.9961,5.207 -20.32349,9.6998 -20.32349,9.6998 l 1.38569,24.4806 z"
         style="fill:#cccccc;fill-opacity:1;stroke:#000000;stroke-width:2;stroke-linecap:round;stroke-linejoin:round;stroke-miterlimit:4;stroke-opacity:1;stroke-dasharray:none"
         inkscape:connector-curvature="0" />
      <path
         id="path3126"
         d="m 421.62491,647.66934 c 15.68449,-4.57464 31.36898,-9.14929 47.05347,-13.72393 -0.21784,3.70328 -0.43568,7.40657 -0.65352,11.10985 -14.37745,4.3568 -28.7549,8.7136 -43.13235,13.0704 -1.0892,-3.48544 -2.1784,-6.97088 -3.2676,-10.45632 z"
         style="fill:#b3b3b3;fill-opacity:1;stroke:#000000;stroke-width:2;stroke-linecap:round;stroke-linejoin:round;stroke-miterlimit:4;stroke-opacity:1;stroke-dasharray:none;display:inline"
         inkscape:connector-curvature="0" />
      <path
         sodipodi:nodetypes="caasssssssc"
         id="path4198"
         d="m 903.03213,521.17749 c 0,0 6.47968,54.41997 -7.43236,75.56236 -9.8543,14.97577 -29.47741,22.57459 -47.07163,26.01327 -27.34407,5.34422 -55.79964,-15.96672 -82.99473,-9.90982 -91.20554,20.31334 -182.55649,47.40085 -284.90725,66.89127 -29.04648,5.53125 -52.60645,29.57381 -71.84618,52.02655 -42.98591,50.16451 -85.50196,111.62737 -144.93108,153.60217 -45.26949,31.97385 -66.59274,17.34136 -86.71091,37.78118 -8.38099,8.51498 -11.31637,24.80836 -6.19363,35.30372 9.88587,20.25402 29.24592,25.68965 47.07163,25.39391 14.86083,-0.24655 43.35545,-4.33554 43.35545,-4.33554"
         style="fill:#333333;fill-opacity:0;stroke:#000000;stroke-width:3;stroke-linecap:round;stroke-linejoin:round;stroke-miterlimit:4;stroke-opacity:1;stroke-dasharray:none"
         inkscape:connector-curvature="0" />
      <path
         sodipodi:nodetypes="csassaacc"
         id="path4200"
         d="m 868.0292,522.0438 c 0,0 26.37818,20.75494 28.90511,35.9124 3.68037,22.07633 -1.8874,34.42163 -14.0146,43.79562 -25.21764,19.49253 -64.88067,-0.25629 -95.47446,5.25548 -105.07854,18.93093 -200.49322,53.12126 -309.19707,75.32846 -16.48524,3.36779 -30.95003,19.04438 -34.16059,35.0365 -2.65728,13.2362 10.15686,25.02104 14.89051,37.66424 15.9629,42.63561 45.54745,128.75912 45.54745,128.75912 l 2.62773,0"
         style="fill:#333333;fill-opacity:0;stroke:#000000;stroke-width:3;stroke-linecap:round;stroke-linejoin:round;stroke-miterlimit:4;stroke-opacity:1;stroke-dasharray:none"
         inkscape:connector-curvature="0" />
    </g>
    <g
       id="g3932"
       inkscape:transform-center-x="-37.028195"
       inkscape:transform-center-y="-0.018547647"
       transform="matrix(-0.62723957,-0.77882637,0.77882637,-0.62723957,125.83645,1963.9921)">
      <path
         transform="matrix(1.2469064,0,0,1.2469064,283.33292,-148.86688)"
         d="m 239.51316,913.83651 -0.57306,3.90273 -3.82712,0.95544 -1.07757,3.79454 -3.91909,0.44772 -1.56364,3.62143 -3.944,-0.0676 -2.02295,3.38635 -3.90143,-0.58187 -2.44765,3.09334 -3.7921,-1.08613 -2.83048,2.74739 -3.61789,-1.57181 -3.16487,2.35443 -3.38178,-2.03059 -3.4451,1.92119 -3.0878,-2.45462 -3.6664,1.45508 -2.74099,-2.83667 -3.82496,0.96407 -2.34728,-3.17017 -3.91807,0.45656 -1.91341,-3.44943 -3.94415,-0.0588 -1.4468,-3.66967 -3.90273,-0.57306 -0.95544,-3.82712 -3.79454,-1.07757 -0.44772,-3.91909 -3.62143,-1.56364 0.0677,-3.944 -3.38635,-2.02295 0.58187,-3.90143 -3.09334,-2.44765 1.08613,-3.79211 -2.74739,-2.83047 1.57181,-3.61789 -2.35443,-3.16487 2.03059,-3.38178 -1.92119,-3.4451 2.45462,-3.0878 -1.45508,-3.6664 2.83667,-2.74099 -0.96407,-3.82496 3.17017,-2.34728 -0.45656,-3.91807 3.44943,-1.91341 0.0588,-3.94415 3.66967,-1.4468 0.57306,-3.90273 3.82712,-0.95544 1.07757,-3.79454 3.91909,-0.44772 1.56364,-3.62143 3.944,0.0676 2.02295,-3.38635 3.90143,0.58186 2.44765,-3.09333 3.79211,1.08613 2.83047,-2.74739 3.61789,1.57181 3.16487,-2.35443 3.38178,2.03059 3.4451,-1.9212 3.0878,2.45463 3.6664,-1.45508 2.74099,2.83667 3.82496,-0.96407 2.34728,3.17017 3.91807,-0.45657 1.91341,3.44943 3.94415,0.0588 1.4468,3.66967 3.90273,0.57306 0.95544,3.82712 3.79454,1.07757 0.44772,3.91909 3.62143,1.56364 -0.0677,3.944 3.38635,2.02295 -0.58186,3.90143 3.09333,2.44765 -1.08613,3.79211 2.74739,2.83047 -1.57181,3.61789 2.35443,3.16487 -2.03059,3.38178 1.9212,3.4451 -2.45463,3.0878 1.45508,3.6664 -2.83667,2.74099 0.96407,3.82496 -3.17017,2.34728 0.45657,3.91807 -3.44943,1.91341 -0.0588,3.94415 z"
         inkscape:randomized="0"
         inkscape:rounded="0"
         inkscape:flatsided="false"
         sodipodi:arg2="0.73597141"
         sodipodi:arg1="0.67052156"
         sodipodi:r2="52.197498"
         sodipodi:r1="50.109596"
         sodipodi:cy="882.69867"
         sodipodi:cx="200.25241"
         sodipodi:sides="48"
         id="path3139"
         style="fill:#cccccc;fill-opacity:1;stroke:#666666;stroke-width:2.64654994;stroke-linecap:round;stroke-linejoin:round;stroke-miterlimit:4;stroke-opacity:1;stroke-dasharray:none"
         sodipodi:type="star" />
      <path
         sodipodi:type="star"
         style="fill:#cccccc;fill-opacity:1;stroke:#666666;stroke-width:3.37060595;stroke-linecap:round;stroke-linejoin:round;stroke-miterlimit:4;stroke-opacity:1;stroke-dasharray:none"
         id="path3141"
         sodipodi:sides="38"
         sodipodi:cx="200.25241"
         sodipodi:cy="882.69867"
         sodipodi:r1="49.587624"
         sodipodi:r2="52.197498"
         sodipodi:arg1="0.67052156"
         sodipodi:arg2="0.75319505"
         inkscape:flatsided="false"
         inkscape:rounded="0"
         inkscape:randomized="0"
         d="m 239.1042,913.51216 -0.77333,4.88819 -4.82829,1.08634 -1.56736,4.69425 -4.94124,0.27681 -2.31863,4.37224 -4.91941,-0.54026 -3.00665,3.93097 -4.76339,-1.3426 -3.61267,3.38248 -4.47744,-2.10831 -4.12013,2.74172 -4.06935,-2.81653 -4.51521,2.02618 -3.55027,-3.4479 -4.78713,1.25536 -2.93434,-3.98523 -4.92846,0.45031 -2.23838,-4.41386 -4.93536,-0.36703 -1.48135,-4.72209 -4.80764,-1.17435 -0.68391,-4.90151 -4.54878,-1.94965 0.13218,-4.94723 -4.16584,-2.67176 0.94466,-4.858 -3.66926,-3.32099 1.73137,-4.63626 -3.0726,-3.87964 2.47087,-4.28805 -2.39213,-4.33246 3.14295,-3.82288 -1.64639,-4.6671 3.72931,-3.25342 -0.85577,-4.87444 4.21395,-2.59523 -0.0418,-4.94881 4.58363,-1.86624 0.77334,-4.88819 4.82828,-1.08635 1.56736,-4.69424 4.94124,-0.27681 2.31863,-4.37224 4.91941,0.54026 3.00665,-3.93097 4.7634,1.3426 3.61266,-3.38249 4.47744,2.10832 4.12013,-2.74172 4.06936,2.81652 4.5152,-2.02618 3.55028,3.44791 4.78712,-1.25537 2.93434,3.98524 4.92846,-0.45031 2.23838,4.41386 4.93536,0.36703 1.48135,4.72209 4.80764,1.17435 0.68391,4.90151 4.54878,1.94965 -0.13217,4.94723 4.16583,2.67176 -0.94466,4.85799 3.66926,3.321 -1.73137,4.63626 3.0726,3.87964 -2.47086,4.28805 2.39212,4.33246 -3.14295,3.82288 1.64639,4.6671 -3.72931,3.25342 0.85577,4.87444 -4.21395,2.59523 0.0418,4.94881 z"
         transform="matrix(0.97905247,0,0,0.97905247,336.97132,87.56742)" />
      <path
         transform="matrix(0.73499695,0,0,0.73499695,385.84402,302.99491)"
         d="m 237.8773,912.5391 -0.61702,6.96984 -6.96643,0.65432 -2.15249,6.6578 -6.93737,-0.91227 -3.58002,6.0119 -6.56044,-2.4331 -4.82803,5.06454 -5.85454,-3.83193 -5.83395,3.86322 -4.85507,-5.03862 -6.54732,2.46819 -3.61215,-5.99265 -6.93239,0.94939 -2.1881,-6.64617 -6.96984,-0.61702 -0.65432,-6.96644 -6.6578,-2.15248 0.91227,-6.93737 -6.0119,-3.58002 2.4331,-6.56044 -5.06454,-4.82803 3.83193,-5.85454 -3.86322,-5.83395 5.03862,-4.85507 -2.46819,-6.54733 5.99265,-3.61214 -0.94939,-6.9324 6.64617,-2.18809 0.61702,-6.96984 6.96644,-0.65432 2.15248,-6.6578 6.93737,0.91226 3.58002,-6.01189 6.56044,2.4331 4.82803,-5.06454 5.85454,3.83193 5.83395,-3.86322 4.85507,5.03862 6.54733,-2.46819 3.61214,5.99264 6.9324,-0.94939 2.18809,6.64618 6.96984,0.61702 0.65432,6.96644 6.6578,2.15248 -0.91226,6.93737 6.01189,3.58002 -2.4331,6.56044 5.06454,4.82803 -3.83193,5.85454 3.86322,5.83395 -5.03862,4.85507 2.46819,6.54732 -5.99264,3.61215 0.94939,6.93239 z"
         inkscape:randomized="0"
         inkscape:rounded="0"
         inkscape:flatsided="false"
         sodipodi:arg2="0.7827213"
         sodipodi:arg1="0.67052156"
         sodipodi:r2="52.197498"
         sodipodi:r1="48.021698"
         sodipodi:cy="882.69867"
         sodipodi:cx="200.25241"
         sodipodi:sides="28"
         id="path3915"
         style="fill:#cccccc;fill-opacity:1;stroke:#666666;stroke-width:4.48981476;stroke-linecap:round;stroke-linejoin:round;stroke-miterlimit:4;stroke-opacity:1;stroke-dasharray:none"
         sodipodi:type="star" />
      <path
         d="m 564.08759,948.61311 c 2.50572,22.55143 -2.49365,-2.32264 -16.66811,15.39543 -14.17446,17.71808 11.19035,17.13535 -11.36108,19.64107 -22.55143,2.50571 2.32264,-2.49366 -15.39543,-16.66812 -17.71808,-14.17446 -17.13535,11.19035 -19.64107,-11.36108 -2.50571,-22.55143 2.49366,2.32264 16.66812,-15.39543 14.17446,-17.71808 -11.19035,-17.13535 11.36108,-19.64107 22.55143,-2.50571 -2.32264,2.49366 15.39543,16.66812 17.71808,14.17446 17.13535,-11.19035 19.64106,11.36108 z"
         inkscape:randomized="0"
         inkscape:rounded="1"
         inkscape:flatsided="false"
         sodipodi:arg2="0.67474094"
         sodipodi:arg1="-0.11065722"
         sodipodi:r2="19.036139"
         sodipodi:r1="31.726896"
         sodipodi:cy="952.11676"
         sodipodi:cx="532.55475"
         sodipodi:sides="4"
         id="path3105"
         style="fill:#333333;fill-opacity:1;stroke:#666666;stroke-width:2;stroke-linecap:round;stroke-linejoin:round;stroke-miterlimit:4;stroke-opacity:1;stroke-dasharray:none"
         sodipodi:type="star"
         transform="translate(0.47418522,-0.34102007)" />
      <path
         sodipodi:nodetypes="ccaaczcaac"
         id="path3879"
         d="m 538.36623,932.18201 13.13868,10.07299 c 0,0 -15.88428,31.6731 -26.71532,45.54744 -12.95892,16.60016 -30.85863,28.72846 -45.10949,44.23366 -7.43737,8.092 -21.0219,25.4014 -21.0219,25.4014 0,0 -8.71312,7.1869 -14.89051,2.1898 -6.17739,-4.9972 -0.43796,-14.8905 -0.43796,-14.8905 0,0 14.26915,-15.6219 20.58395,-24.0876 12.68645,-17.0078 20.73341,-37.36931 34.59854,-53.4307 11.55855,-13.38945 39.85401,-35.03649 39.85401,-35.03649 z"
         style="fill:#cccccc;fill-opacity:1;stroke:#666666;stroke-width:2;stroke-linecap:round;stroke-linejoin:round;stroke-miterlimit:4;stroke-opacity:1;stroke-dasharray:none"
         inkscape:connector-curvature="0" />
      <path
         transform="matrix(1.0656871,0,0,1.0656871,-35.907937,-62.882809)"
         d="m 541.31385,952.11676 c 0,4.1119 -3.33336,7.44526 -7.44526,7.44526 -4.1119,0 -7.44525,-3.33336 -7.44525,-7.44526 0,-4.1119 3.33335,-7.44526 7.44525,-7.44526 4.1119,0 7.44526,3.33336 7.44526,7.44526 z"
         sodipodi:ry="7.4452553"
         sodipodi:rx="7.4452553"
         sodipodi:cy="952.11676"
         sodipodi:cx="533.86859"
         id="path3925"
         style="fill:#333333;fill-opacity:1;stroke:#666666;stroke-width:2;stroke-linecap:round;stroke-linejoin:round;stroke-miterlimit:4;stroke-opacity:1;stroke-dasharray:none"
         sodipodi:type="arc" />
      <path
         transform="translate(-1.3138686,-0.4379562)"
         d="m 455.47446,1053.2847 c 0,2.4187 -1.86276,4.3795 -4.16059,4.3795 -2.29782,0 -4.16058,-1.9608 -4.16058,-4.3795 0,-2.4188 1.86276,-4.3796 4.16058,-4.3796 2.29783,0 4.16059,1.9608 4.16059,4.3796 z"
         sodipodi:ry="4.3795619"
         sodipodi:rx="4.160584"
         sodipodi:cy="1053.2847"
         sodipodi:cx="451.31387"
         id="path3927"
         style="fill:#333333;fill-opacity:1;stroke:#666666;stroke-width:2;stroke-linecap:round;stroke-linejoin:round;stroke-miterlimit:4;stroke-opacity:1;stroke-dasharray:none"
         sodipodi:type="arc" />
    </g>
  </g>
  <g
     inkscape:label="Hintergrund"
     inkscape:groupmode="layer"
     id="layer1"
     transform="translate(11.000006,-286.92682)"
     style="opacity:0.6028571;display:inline" />
</svg>
